<?xml version="1.0" standalone="no"?>
<!DOCTYPE svg PUBLIC "-//W3C//DTD SVG 20010904//EN"
 "http://www.w3.org/TR/2001/REC-SVG-20010904/DTD/svg10.dtd">
<svg version="1.0" xmlns="http://www.w3.org/2000/svg"
 width="512.000000pt" height="512.000000pt" viewBox="0 0 512.000000 512.000000"
 preserveAspectRatio="xMidYMid meet">
<metadata>
Created by potrace 1.11, written by Peter Selinger 2001-2013
</metadata>
<g transform="translate(0.000000,512.000000) scale(0.100000,-0.100000)"
fill="#000000" stroke="none">
<path d="M1410 4669 c-630 -230 -1148 -419 -1151 -421 -4 -2 16 -194 42 -428
119 -1039 232 -2040 265 -2335 21 -188 41 -323 48 -328 6 -4 130 -76 276 -158
146 -83 366 -208 490 -278 260 -148 640 -364 955 -542 120 -68 222 -123 225
-122 3 1 327 185 720 410 393 225 844 483 1003 572 158 90 287 168 287 175 0
6 23 222 52 480 39 352 49 471 40 474 -17 5 -15 22 3 22 8 0 15 7 15 16 0 9
27 260 61 558 33 297 58 551 56 563 -2 12 -1 24 3 25 6 3 27 178 84 700 l22
197 -526 187 c-289 103 -802 286 -1140 406 -338 121 -631 226 -650 232 -34 12
-76 -2 -1180 -405z m1014 229 c-5 -8 -2 -9 9 -5 10 3 17 2 17 -3 0 -6 -12 -10
-26 -10 -22 0 -25 2 -14 15 15 18 24 20 14 3z m530 -49 c-6 -11 -31 -12 -37
-1 -3 4 6 8 19 8 13 1 21 -2 18 -7z m-364 -814 c7 -8 18 -15 26 -15 14 0 37
-34 28 -42 -2 -3 0 -17 5 -32 7 -17 7 -26 1 -26 -6 0 -10 -10 -10 -22 0 -17 3
-19 9 -9 14 22 31 3 31 -34 0 -26 -4 -33 -14 -29 -12 4 -13 -2 -6 -32 5 -21 7
-41 4 -45 -2 -4 0 -9 6 -11 5 -1 10 -31 11 -65 1 -35 6 -63 10 -63 10 0 13 20
10 60 -1 22 0 23 9 8 6 -10 8 -39 5 -65 -4 -32 -2 -49 7 -55 10 -6 8 -8 -4 -8
-11 0 -18 -8 -18 -20 0 -11 5 -20 10 -20 6 0 10 7 10 15 0 8 7 15 15 15 9 0
15 10 16 28 1 17 3 20 6 9 8 -30 22 -9 16 26 -6 38 -13 49 -13 19 0 -12 -4
-22 -8 -22 -5 0 -7 37 -6 83 1 45 0 70 -3 55 -2 -16 -8 -28 -13 -28 -19 0 -34
201 -18 233 9 17 11 17 27 3 10 -9 21 -13 24 -9 4 3 5 -23 2 -58 -2 -35 -2
-56 1 -46 3 9 9 15 12 13 4 -2 5 16 3 41 -2 32 0 43 8 39 6 -4 12 -24 12 -44
2 -30 3 -32 6 -9 5 28 30 37 39 13 3 -8 14 -16 25 -19 15 -4 18 -11 15 -29
-10 -42 -14 -173 -6 -193 5 -14 10 3 14 50 4 39 7 75 6 80 -4 20 0 42 13 58
10 15 16 16 39 5 24 -11 28 -19 28 -55 0 -23 5 -45 10 -48 6 -3 10 -30 11 -58
0 -29 4 -61 9 -72 7 -14 9 -3 9 40 -1 123 0 135 16 135 9 0 18 -7 22 -16 3 -8
12 -13 19 -10 16 6 19 -10 4 -19 -5 -3 -7 -11 -4 -18 3 -8 -2 -26 -10 -41 -12
-24 -15 -25 -19 -9 -3 10 -5 -6 -6 -34 0 -29 3 -53 7 -53 13 0 -20 -189 -34
-194 -10 -4 -11 1 -3 21 11 31 10 173 -2 173 -5 0 -13 15 -18 33 l-9 32 -1
-42 c-1 -23 -6 -45 -12 -48 -6 -4 -9 -26 -8 -50 2 -25 -3 -50 -11 -60 -9 -11
-10 -19 -2 -27 6 -6 8 -17 5 -25 -5 -12 -1 -14 15 -8 13 4 22 2 22 -4 0 -6
-10 -11 -22 -11 -21 -1 -21 -2 -5 -11 9 -5 17 -18 18 -27 0 -10 4 -7 10 10 6
14 16 29 24 32 11 4 13 -7 10 -52 -3 -39 -2 -51 5 -37 7 16 9 13 9 -17 1 -26
6 -38 19 -41 13 -4 11 -5 -5 -6 -23 -1 -23 -3 -25 -153 0 -89 -4 -134 -7 -108
-6 42 -7 39 -12 -35 -4 -44 -3 -91 1 -105 5 -17 3 -33 -6 -45 -16 -22 -18 -39
-4 -30 12 8 13 -74 1 -94 -5 -8 -14 -10 -21 -6 -8 5 -11 4 -7 -2 6 -10 -62
-48 -70 -39 -3 3 -5 23 -5 46 0 22 -3 38 -8 35 -5 -3 -6 -13 -3 -22 4 -11 3
-14 -5 -9 -8 5 -12 0 -12 -13 0 -10 6 -22 13 -25 10 -5 10 -7 0 -12 -7 -3 -13
-12 -13 -19 0 -12 -177 -105 -229 -120 -13 -4 -34 -19 -46 -33 l-21 -25 -65
34 c-35 19 -65 37 -67 42 -2 4 -8 7 -14 7 -6 0 -23 11 -40 25 -16 14 -36 25
-44 25 -8 0 -14 8 -14 17 0 12 -3 14 -11 6 -13 -13 -73 18 -83 42 -3 8 -15 15
-27 15 -12 0 -23 8 -26 19 -3 14 -17 21 -50 26 -63 9 -92 24 -99 51 -4 15 -11
20 -24 17 -20 -5 -99 32 -115 54 -6 8 -18 13 -26 12 -16 -4 -87 39 -108 65 -7
9 -23 16 -35 16 -12 0 -31 7 -41 15 -25 19 -108 64 -200 110 -108 54 -179 96
-188 111 -4 8 -17 14 -28 14 -22 0 -75 25 -81 37 -1 5 -27 19 -56 32 -28 14
-52 27 -52 31 0 10 70 41 80 35 5 -3 17 5 27 18 10 13 47 38 81 54 34 17 69
36 77 43 8 7 24 10 35 7 16 -4 23 1 30 17 9 24 29 36 61 36 10 0 19 7 19 15 0
9 9 15 21 15 11 0 32 9 46 20 14 11 34 20 44 20 11 0 19 5 19 10 0 6 6 10 14
10 7 0 20 7 27 16 7 9 22 20 34 25 11 5 47 25 80 44 112 66 177 96 191 91 8
-3 20 3 26 14 7 11 20 20 29 20 9 0 28 9 41 20 14 10 28 16 32 13 3 -3 6 1 6
9 0 9 7 19 16 22 20 8 18 9 32 -29 l11 -30 -5 35 c-5 30 -2 36 14 37 14 1 19
-4 17 -15 -2 -9 -4 -33 -4 -52 -1 -26 -4 -31 -11 -20 -5 8 -10 10 -10 5 0 -6
5 -16 11 -22 11 -11 3 -37 -9 -29 -4 2 -8 -21 -10 -52 -3 -52 -2 -55 15 -41
17 13 17 13 1 -7 -20 -23 -24 -74 -7 -74 6 0 8 7 5 16 -3 8 1 23 10 31 11 11
14 26 10 45 -3 16 -3 63 1 104 5 59 9 74 20 69 12 -4 13 3 9 40 -4 25 -2 45 3
45 10 0 21 -34 21 -67 0 -13 4 -23 9 -23 6 0 9 18 9 41 0 22 5 46 11 52 21 21
16 -197 -5 -230 -8 -12 -14 -28 -14 -35 0 -8 5 -6 11 5 6 9 15 14 21 11 7 -5
9 -2 5 9 -3 9 -2 17 4 19 5 2 12 43 14 92 3 49 9 94 12 99 3 6 1 7 -6 3 -11
-7 -10 9 6 67 6 24 19 21 27 -5 7 -22 8 -21 19 10 10 25 28 42 72 67 33 19 76
43 95 54 43 25 44 25 60 6z m105 -65 c3 -5 1 -10 -4 -10 -6 0 -11 5 -11 10 0
6 2 10 4 10 3 0 8 -4 11 -10z m444 -244 c8 -10 8 -22 -1 -47 l-12 -34 -7 30
c-14 63 -6 83 20 51z m56 -113 c4 -49 9 -130 10 -181 3 -99 14 -138 16 -56 1
27 4 67 7 89 8 61 8 148 -2 170 -6 16 -6 17 3 5 9 -13 11 -13 11 3 0 20 12 22
43 5 12 -6 29 -14 37 -18 14 -7 17 -24 19 -117 1 -32 4 -41 15 -37 11 4 13 0
9 -17 -4 -14 -2 -20 4 -16 6 4 10 20 9 36 -1 16 3 29 8 28 7 -1 10 16 8 46
l-4 48 54 -28 c29 -15 55 -32 57 -37 2 -5 12 -17 22 -27 11 -11 19 -21 19 -24
0 -71 1 -79 9 -66 5 8 7 29 4 48 -6 36 0 41 23 18 9 -8 24 -15 35 -15 28 0
115 -46 132 -70 7 -11 16 -17 20 -14 3 3 24 -8 46 -26 22 -18 44 -29 49 -26 5
3 21 -3 35 -14 14 -11 32 -20 40 -20 9 0 18 -4 22 -9 3 -6 30 -22 60 -37 l55
-26 -2 -542 -3 -541 -133 -3 -132 -3 4 268 c3 147 5 268 6 268 1 0 3 19 5 43
2 23 0 42 -3 42 -4 0 -7 42 -7 94 0 154 -8 222 -25 217 -8 -2 -23 -5 -34 -6
-10 -1 -22 -9 -28 -18 -5 -9 -27 -20 -48 -23 -24 -4 -40 -12 -40 -20 0 -18
-57 -47 -65 -34 -3 6 -3 16 2 23 9 14 11 197 1 197 -15 0 -26 -60 -17 -97 6
-27 5 -41 -4 -48 -7 -6 -11 -27 -9 -48 2 -29 -2 -42 -15 -52 -15 -12 -19 -11
-25 3 -5 14 -7 13 -7 -5 -1 -25 -23 -43 -29 -25 -2 7 -20 -4 -43 -28 -21 -22
-47 -40 -58 -40 -10 0 -24 -7 -31 -15 -7 -8 -23 -15 -36 -15 -19 0 -24 6 -26
28 0 17 -3 11 -7 -17 -9 -63 -31 -66 -32 -4 0 26 -4 57 -8 68 -8 19 -8 19 -15
-2 -4 -13 -11 -23 -15 -23 -8 0 -7 36 4 98 6 31 -8 45 -18 20 -6 -14 -12 71
-9 112 5 60 1 135 -8 144 -6 6 -11 26 -11 45 l-2 36 -7 -40 c-5 -29 -8 -33 -9
-15 -2 14 -5 19 -8 13 -2 -7 2 -43 10 -80 10 -46 13 -106 10 -186 -3 -78 -1
-117 6 -113 10 6 14 -10 26 -96 4 -31 0 -41 -27 -70 -29 -31 -31 -32 -39 -13
-7 19 -8 19 -8 1 -2 -34 -61 -64 -61 -30 0 8 -5 12 -10 9 -13 -8 -2 44 13 63
8 10 7 16 -6 23 -18 11 -25 85 -8 91 5 2 11 55 12 118 3 133 6 150 26 150 8 0
12 -4 9 -9 -4 -5 -2 -21 4 -36 8 -20 7 -27 -5 -32 -12 -4 -14 -14 -9 -42 15
-82 27 -45 27 79 0 82 -14 223 -24 236 -13 17 -23 104 -12 104 5 0 8 -15 6
-32 -3 -29 -2 -30 7 -10 15 34 30 26 30 -17 0 -22 4 -42 9 -46 14 -8 10 138
-3 148 -8 5 -8 9 0 15 17 11 34 70 35 121 1 43 2 44 10 16 7 -26 8 -24 5 13
-3 35 -1 42 14 42 15 0 19 -13 25 -87z m1603 -188 c3 -3 -4 -5 -15 -5 -12 0
-23 -5 -25 -12 -3 -9 -13 -9 -38 2 -34 14 -34 14 -10 20 26 7 80 3 88 -5z
m-38 -165 c-14 -4 -32 -8 -40 -9 -13 -1 -13 0 0 9 8 5 26 9 40 9 l25 -1 -25
-8z m-3034 -666 c45 -24 85 -51 88 -60 3 -8 9 -13 13 -11 5 3 24 -3 43 -14 19
-10 50 -25 68 -34 18 -9 35 -22 38 -30 3 -7 30 -21 60 -31 30 -9 54 -20 54
-25 0 -7 21 -18 93 -48 26 -10 28 -15 22 -43 -7 -30 -6 -31 9 -15 23 23 49 21
94 -5 21 -13 47 -28 57 -34 17 -9 20 -23 21 -86 1 -75 7 -98 26 -98 7 0 6 5
-1 14 -8 9 -8 16 -2 20 6 4 8 28 5 56 -2 27 -1 51 3 53 14 8 53 -12 53 -28 0
-10 10 -15 32 -15 37 0 69 -25 61 -47 -4 -11 -2 -14 8 -11 8 3 13 14 12 24 -1
15 19 30 91 67 51 26 100 47 109 47 10 0 17 7 17 15 0 8 5 15 10 15 6 0 10
-26 9 -62 -1 -39 3 -64 10 -66 13 -4 15 -32 2 -32 -12 0 -28 -50 -23 -73 2 -9
8 -15 13 -12 9 6 12 -16 10 -65 -1 -14 3 -38 8 -55 9 -28 9 -27 10 17 1 26 6
50 12 54 13 7 7 152 -7 189 -7 18 -6 18 9 6 15 -11 17 -11 17 2 0 31 -13 76
-21 72 -4 -3 -10 -1 -14 4 -7 13 32 54 44 46 5 -3 23 9 41 25 18 17 37 30 44
30 6 0 19 9 29 20 21 25 37 26 38 3 1 -17 2 -17 6 0 2 9 9 17 15 17 6 0 20 8
30 17 18 16 18 16 12 0 -4 -12 -1 -17 10 -17 9 0 16 -4 16 -10 0 -5 -5 -10
-10 -10 -6 0 -10 -21 -9 -47 2 -69 -2 -120 -8 -105 -2 6 -9 12 -15 12 -6 0 -4
-8 5 -18 10 -10 17 -25 17 -34 0 -8 6 -15 13 -15 9 0 14 30 16 116 4 164 4
161 18 161 7 0 13 -7 13 -15 0 -8 5 -15 11 -15 6 0 8 -7 5 -15 -3 -9 -1 -23 4
-33 5 -9 12 -34 15 -54 3 -21 9 -38 14 -38 11 0 10 32 -1 46 -5 7 -4 23 2 38
5 15 10 39 10 54 0 20 3 23 9 13 6 -10 11 3 16 42 4 31 11 55 15 52 5 -3 10
-2 12 2 5 13 88 53 108 53 10 0 20 9 23 21 7 26 28 20 44 -12 13 -24 13 -24
13 9 0 27 4 32 24 32 l23 0 0 -247 c0 -248 0 -248 -23 -270 -13 -12 -24 -19
-24 -15 0 4 -4 3 -8 -3 -7 -10 -48 -35 -57 -35 -3 0 -5 8 -6 18 -1 11 -4 8 -8
-8 -4 -15 -15 -25 -26 -26 -31 -2 -54 -14 -60 -32 -7 -24 -61 -48 -110 -51
-14 0 -25 -7 -25 -15 0 -8 -19 -25 -42 -39 -39 -23 -44 -24 -54 -8 -18 25 -20
63 -5 98 10 24 10 44 3 85 -6 29 -10 69 -10 88 1 19 -5 53 -12 75 -9 29 -10
40 -1 43 6 2 11 8 11 13 0 6 -4 8 -9 5 -4 -3 -6 7 -4 22 4 27 4 27 -9 4 -8
-12 -17 -20 -20 -17 -3 4 -9 2 -13 -4 -3 -6 -1 -11 6 -11 9 0 10 -17 6 -62 -4
-39 -2 -55 3 -43 7 16 9 17 9 3 1 -9 7 -18 14 -21 9 -3 9 -9 0 -28 -15 -30
-20 -80 -9 -98 5 -8 4 -16 -3 -21 -7 -4 -11 -11 -10 -16 1 -5 1 -29 -1 -54 -1
-35 -3 -41 -10 -25 -6 14 -9 15 -9 4 -1 -8 4 -20 10 -26 7 -7 9 -22 4 -40 l-8
-28 -8 25 c-8 22 -8 21 -5 -8 2 -26 -1 -33 -19 -38 -12 -3 -28 -4 -35 -2 -8 2
-14 -4 -15 -12 0 -8 -14 -20 -32 -25 -17 -6 -40 -18 -50 -28 -11 -9 -34 -20
-51 -23 -18 -4 -32 -11 -32 -16 0 -9 -66 -51 -87 -54 -7 -1 -20 -9 -29 -18 -8
-9 -26 -16 -40 -16 -20 0 -24 5 -25 33 -1 27 -2 28 -6 7 -2 -14 -12 -31 -21
-39 -16 -13 -16 -13 1 -8 9 4 17 2 17 -3 0 -14 -12 -12 -48 6 -31 15 -32 17
-26 68 4 35 3 56 -5 60 -8 5 -11 -9 -11 -43 0 -36 -4 -51 -13 -51 -20 0 -57
35 -57 53 0 11 -8 15 -29 12 -29 -4 -75 22 -94 52 -4 7 -15 13 -23 13 -8 0
-14 6 -13 13 4 19 -13 89 -19 82 -4 -3 -5 -23 -3 -45 2 -39 2 -39 -26 -30 -34
10 -116 50 -123 60 -3 3 -21 17 -40 31 -25 17 -36 32 -37 54 -4 59 -8 74 -17
65 -4 -4 -7 -27 -4 -49 2 -27 0 -41 -8 -41 -16 0 -152 69 -160 81 -3 6 -23 17
-45 26 -21 8 -39 19 -39 24 0 5 -7 9 -16 9 -24 0 -74 32 -74 47 0 8 -6 16 -14
19 -12 5 -15 33 -14 152 0 81 5 155 10 166 7 13 6 26 -3 43 -11 20 -11 28 0
44 8 14 9 25 3 32 -6 7 -10 29 -10 50 0 45 -3 46 114 -19z m1511 -136 c-3 -7
-5 -2 -5 12 0 14 2 19 5 13 2 -7 2 -19 0 -25z m1433 -247 c0 -5 -9 -11 -21
-14 -16 -4 -18 -3 -8 9 13 16 29 19 29 5z"/>
<path d="M2437 3917 c-3 -8 -2 -19 3 -26 5 -9 9 -7 13 8 6 23 -8 39 -16 18z"/>
<path d="M2482 3896 c0 -20 4 -36 9 -36 10 0 11 3 13 39 0 13 -4 26 -10 28 -8
3 -12 -9 -12 -31z"/>
<path d="M2360 3855 c0 -8 -6 -15 -12 -15 -10 0 -10 -2 -2 -8 7 -4 11 -18 10
-31 0 -13 5 -26 13 -29 10 -3 12 0 8 12 -4 9 -2 25 5 35 12 20 5 51 -12 51 -5
0 -10 -7 -10 -15z"/>
<path d="M2778 3807 c-3 -19 -2 -25 4 -19 6 6 8 18 6 28 -3 14 -5 12 -10 -9z"/>
<path d="M2742 3790 c0 -14 2 -19 5 -12 2 6 2 18 0 25 -3 6 -5 1 -5 -13z"/>
<path d="M2811 3773 c-1 -32 -21 -48 -21 -18 0 8 -4 15 -9 15 -14 0 -1 -38 15
-44 18 -7 27 14 21 51 -4 27 -4 27 -6 -4z"/>
<path d="M2551 3636 c-1 -77 2 -137 5 -133 10 10 14 200 5 237 -6 25 -9 -5
-10 -104z"/>
<path d="M2346 3731 c-7 -10 0 -80 8 -89 3 -2 9 5 15 16 12 23 -10 94 -23 73z"/>
<path d="M2085 3720 c-3 -5 -2 -11 3 -14 5 -3 7 -18 5 -33 -3 -27 11 -63 21
-53 4 5 9 54 7 81 -1 19 -27 33 -36 19z"/>
<path d="M2794 3537 c0 -94 2 -149 6 -122 5 44 7 46 11 20 4 -22 6 -15 7 25 2
76 -10 250 -17 250 -3 0 -6 -78 -7 -173z"/>
<path d="M2255 3690 c-3 -5 -1 -10 4 -10 6 0 11 5 11 10 0 6 -2 10 -4 10 -3 0
-8 -4 -11 -10z"/>
<path d="M2208 3645 c0 -22 -1 -47 0 -55 1 -8 2 -36 3 -62 1 -27 6 -48 10 -48
10 0 10 -1 12 90 1 36 -4 76 -10 90 -13 24 -13 24 -15 -15z"/>
<path d="M2407 3624 c-4 -4 -7 -17 -7 -28 1 -19 1 -20 11 -3 11 19 8 43 -4 31z"/>
<path d="M2127 3613 c-10 -9 -9 -33 1 -33 4 0 8 9 9 20 2 21 0 24 -10 13z"/>
<path d="M2303 3585 c0 -22 2 -30 4 -17 2 12 2 30 0 40 -3 9 -5 -1 -4 -23z"/>
<path d="M2609 3610 c-7 -20 -4 -68 6 -104 5 -20 4 -31 -6 -37 -11 -7 -11 -9
-1 -9 7 0 10 -4 7 -10 -3 -5 0 -10 7 -10 10 0 13 14 11 48 -3 66 -17 140 -24
122z"/>
<path d="M2340 3556 c0 -36 4 -55 10 -51 6 4 8 25 4 53 -9 66 -14 65 -14 -2z"/>
<path d="M2021 3568 c0 -21 -5 -38 -10 -38 -13 0 -19 -22 -27 -100 -5 -52 -3
-70 6 -70 6 0 14 9 17 20 3 11 9 18 13 15 14 -9 19 59 5 74 -9 10 -10 22 -3
48 5 19 7 46 5 61 -3 21 -4 19 -6 -10z"/>
<path d="M2673 3528 c0 -58 0 -60 8 -23 10 52 11 85 1 85 -4 0 -8 -28 -9 -62z"/>
<path d="M2080 3540 c0 -11 2 -20 4 -20 2 0 6 9 9 20 3 11 1 20 -4 20 -5 0 -9
-9 -9 -20z"/>
<path d="M2121 3515 c2 -25 8 -45 13 -45 7 0 10 17 8 45 -2 25 -8 45 -13 45
-6 0 -9 -20 -8 -45z"/>
<path d="M2380 3549 c0 -8 -7 -27 -15 -43 -13 -25 -13 -27 0 -22 9 3 15 0 15
-10 0 -10 -6 -13 -18 -10 -16 5 -18 1 -14 -26 3 -18 6 -73 7 -122 1 -55 6 -91
12 -93 15 -5 37 63 28 85 -13 31 -24 85 -15 76 4 -5 10 -18 13 -29 3 -11 3 30
0 90 -3 61 -7 112 -9 114 -2 2 -4 -2 -4 -10z"/>
<path d="M2265 3481 c1 -20 3 -44 4 -54 1 -10 5 -16 11 -12 5 3 11 -23 13 -62
3 -67 4 -66 4 13 0 45 4 87 8 94 5 9 4 11 -3 6 -8 -5 -12 2 -12 22 0 18 -5 29
-14 29 -11 0 -14 -10 -11 -36z"/>
<path d="M2741 3488 c-1 -9 -7 -19 -13 -22 -10 -5 -10 -7 0 -12 6 -3 10 -9 7
-14 -3 -4 6 -7 20 -6 14 0 25 7 25 15 0 8 -6 11 -16 7 -8 -3 -13 -2 -11 2 3 4
1 16 -4 27 -6 16 -8 16 -8 3z"/>
<path d="M2882 3475 c0 -16 2 -22 5 -12 2 9 2 23 0 30 -3 6 -5 -1 -5 -18z"/>
<path d="M2156 3464 c-8 -21 -8 -24 3 -24 12 0 22 28 12 35 -5 3 -12 -2 -15
-11z"/>
<path d="M2682 3430 c0 -19 2 -27 5 -17 2 9 2 25 0 35 -3 9 -5 1 -5 -18z"/>
<path d="M2310 3400 c0 -11 5 -20 10 -20 6 0 10 9 10 20 0 11 -4 20 -10 20 -5
0 -10 -9 -10 -20z"/>
<path d="M2168 3385 c-3 -14 -1 -25 3 -25 5 0 9 11 9 25 0 14 -2 25 -4 25 -2
0 -6 -11 -8 -25z"/>
<path d="M2210 3381 c0 -6 4 -13 10 -16 6 -3 7 1 4 9 -7 18 -14 21 -14 7z"/>
<path d="M2120 3355 c0 -8 5 -15 10 -15 6 0 10 7 10 15 0 8 -4 15 -10 15 -5 0
-10 -7 -10 -15z"/>
<path d="M2162 3330 c0 -14 2 -19 5 -12 2 6 2 18 0 25 -3 6 -5 1 -5 -13z"/>
<path d="M2781 3334 c0 -11 3 -14 6 -6 3 7 2 16 -1 19 -3 4 -6 -2 -5 -13z"/>
<path d="M2139 3260 c-4 -41 -3 -83 2 -92 6 -10 6 -18 1 -18 -4 0 -9 -17 -9
-37 -1 -21 -5 -58 -9 -82 -5 -35 -3 -46 10 -53 9 -5 13 -15 10 -21 -5 -8 -3
-9 4 -2 6 6 12 50 13 98 1 48 6 109 10 134 7 36 6 48 -6 57 -7 6 -15 29 -17
51 -2 29 -5 19 -9 -35z"/>
<path d="M2622 3305 c0 -16 2 -22 5 -12 2 9 2 23 0 30 -3 6 -5 -1 -5 -18z"/>
<path d="M2968 3275 c-5 -26 -1 -29 26 -19 23 9 20 44 -3 44 -12 0 -20 -9 -23
-25z"/>
<path d="M2554 3244 c-1 -13 2 -21 7 -18 11 6 12 31 2 37 -5 3 -9 -6 -9 -19z"/>
<path d="M2810 3212 c0 -35 4 -62 10 -62 11 0 14 19 11 70 -5 64 -21 57 -21
-8z"/>
<path d="M1637 3245 c-4 -8 -2 -17 3 -20 6 -4 10 -4 10 -1 0 2 3 11 6 20 3 9
2 16 -4 16 -5 0 -12 -7 -15 -15z"/>
<path d="M2977 3217 c-3 -8 -1 -20 4 -28 6 -10 9 -7 9 14 0 29 -5 35 -13 14z"/>
<path d="M2012 3196 c-8 -17 -9 -33 -4 -40 14 -17 20 -65 9 -69 -10 -3 -21
-73 -13 -93 3 -7 14 -10 24 -7 17 4 19 11 15 46 -2 23 -7 76 -11 117 -7 70 -8
73 -20 46z"/>
<path d="M2375 3190 c-3 -5 -1 -10 4 -10 6 0 11 5 11 10 0 6 -2 10 -4 10 -3 0
-8 -4 -11 -10z"/>
<path d="M2552 3150 c0 -19 2 -27 5 -17 2 9 2 25 0 35 -3 9 -5 1 -5 -18z"/>
<path d="M2981 3134 c0 -11 3 -14 6 -6 3 7 2 16 -1 19 -3 4 -6 -2 -5 -13z"/>
<path d="M2760 3106 c0 -14 -4 -28 -10 -31 -14 -9 -13 -38 3 -68 12 -22 13
-18 15 49 1 41 0 74 -3 74 -3 0 -5 -11 -5 -24z"/>
<path d="M2551 3094 c0 -11 3 -14 6 -6 3 7 2 16 -1 19 -3 4 -6 -2 -5 -13z"/>
<path d="M2811 3100 c1 -8 1 -22 0 -30 -1 -13 -2 -13 -11 0 -7 11 -9 2 -9 -30
1 -37 2 -41 9 -20 6 19 8 13 9 -29 1 -42 4 -52 13 -43 13 13 12 128 -3 151 -8
14 -9 14 -8 1z"/>
<path d="M2072 3080 c0 -14 2 -19 5 -12 2 6 2 18 0 25 -3 6 -5 1 -5 -13z"/>
<path d="M2517 2996 c-4 -10 -5 -21 -2 -24 9 -9 17 6 13 25 -3 17 -4 17 -11
-1z"/>
<path d="M2313 2940 c0 -30 2 -43 4 -27 2 15 2 39 0 55 -2 15 -4 2 -4 -28z"/>
<path d="M2551 2932 c1 -34 6 -62 11 -62 9 0 1 109 -9 120 -2 2 -3 -24 -2 -58z"/>
<path d="M2576 2974 c-4 -9 -4 -19 -1 -22 2 -3 7 3 11 12 4 9 4 19 1 22 -2 3
-7 -3 -11 -12z"/>
<path d="M2781 2965 c-1 -23 -3 -27 -11 -15 -7 11 -10 6 -9 -20 l0 -35 15 28
c8 16 13 38 11 50 -3 17 -5 15 -6 -8z"/>
<path d="M2008 2910 c-3 -16 -1 -30 2 -30 4 0 6 -13 4 -30 -2 -16 0 -40 5 -52
8 -21 9 -19 16 17 4 22 10 54 15 71 6 25 4 33 -11 42 -26 16 -26 16 -31 -18z"/>
<path d="M2532 2855 c0 -16 2 -22 5 -12 2 9 2 23 0 30 -3 6 -5 -1 -5 -18z"/>
<path d="M2751 2844 c0 -11 3 -14 6 -6 3 7 2 16 -1 19 -3 4 -6 -2 -5 -13z"/>
<path d="M2140 2823 c0 -15 5 -35 10 -43 7 -11 10 -6 10 22 0 20 -4 40 -10 43
-6 4 -10 -6 -10 -22z"/>
<path d="M2561 2834 c0 -11 3 -14 6 -6 3 7 2 16 -1 19 -3 4 -6 -2 -5 -13z"/>
<path d="M2696 2841 c-4 -7 -5 -15 -2 -18 9 -9 19 4 14 18 -4 11 -6 11 -12 0z"/>
<path d="M2887 2843 c-4 -3 -7 -11 -7 -17 0 -6 5 -5 12 2 6 6 9 14 7 17 -3 3
-9 2 -12 -2z"/>
<path d="M2753 2770 c0 -25 2 -35 4 -22 2 12 2 32 0 45 -2 12 -4 2 -4 -23z"/>
<path d="M2541 2783 c-1 -7 8 -17 19 -23 16 -8 20 -8 20 4 0 8 -5 18 -12 22
-7 4 -8 3 -4 -4 4 -7 3 -12 -3 -12 -5 0 -12 6 -14 13 -4 9 -6 9 -6 0z"/>
<path d="M1990 2759 c0 -5 5 -7 10 -4 6 3 10 8 10 11 0 2 -4 4 -10 4 -5 0 -10
-5 -10 -11z"/>
<path d="M2325 2710 c-11 -35 -13 -87 -4 -101 4 -7 10 12 14 44 8 63 2 95 -10
57z"/>
<path d="M2742 2640 c0 -19 2 -27 5 -17 2 9 2 25 0 35 -3 9 -5 1 -5 -18z"/>
<path d="M2811 2624 c0 -11 3 -14 6 -6 3 7 2 16 -1 19 -3 4 -6 -2 -5 -13z"/>
<path d="M2820 2579 c0 -11 5 -17 10 -14 6 3 10 13 10 21 0 8 -4 14 -10 14 -5
0 -10 -9 -10 -21z"/>
<path d="M2741 2574 c0 -11 3 -14 6 -6 3 7 2 16 -1 19 -3 4 -6 -2 -5 -13z"/>
<path d="M3150 3554 c0 -21 5 -46 10 -54 6 -10 8 -1 7 32 -4 58 -17 76 -17 22z"/>
<path d="M3293 3390 c-1 -44 2 -78 7 -75 4 3 8 28 8 55 1 28 3 54 6 59 7 11
-3 41 -13 41 -3 0 -7 -36 -8 -80z"/>
<path d="M3570 3460 c0 -5 5 -10 11 -10 5 0 7 5 4 10 -3 6 -8 10 -11 10 -2 0
-4 -4 -4 -10z"/>
<path d="M3565 3428 c-4 -9 -1 -34 6 -55 11 -30 14 -34 17 -17 2 12 -1 37 -6
55 -7 27 -11 30 -17 17z"/>
<path d="M3271 3404 c0 -11 3 -14 6 -6 3 7 2 16 -1 19 -3 4 -6 -2 -5 -13z"/>
<path d="M3362 3390 c0 -19 2 -27 5 -17 2 9 2 25 0 35 -3 9 -5 1 -5 -18z"/>
<path d="M3141 3384 c0 -11 3 -14 6 -6 3 7 2 16 -1 19 -3 4 -6 -2 -5 -13z"/>
<path d="M3070 3370 c0 -5 5 -10 11 -10 5 0 7 5 4 10 -3 6 -8 10 -11 10 -2 0
-4 -4 -4 -10z"/>
<path d="M3161 3363 c-7 -8 -11 -16 -8 -19 2 -2 10 2 17 11 17 20 9 27 -9 8z"/>
<path d="M3471 3334 c0 -11 3 -14 6 -6 3 7 2 16 -1 19 -3 4 -6 -2 -5 -13z"/>
<path d="M3549 3309 c-2 -38 1 -62 7 -68 8 -8 16 8 16 31 0 56 -21 90 -23 37z"/>
<path d="M3164 3316 c-3 -8 -4 -27 -2 -43 3 -23 5 -20 9 15 5 43 2 53 -7 28z"/>
<path d="M3371 3304 c0 -11 3 -14 6 -6 3 7 2 16 -1 19 -3 4 -6 -2 -5 -13z"/>
<path d="M3297 3208 c2 -35 5 -68 8 -75 2 -7 0 -15 -4 -17 -10 -7 -2 -108 10
-121 10 -10 10 -5 11 151 1 56 -2 106 -6 113 -16 25 -22 8 -19 -51z"/>
<path d="M3219 3258 c0 -2 -2 -13 -3 -26 -2 -12 -11 -29 -22 -37 -13 -10 -16
-17 -8 -22 7 -5 15 -34 19 -66 4 -32 10 -56 12 -53 7 7 16 206 9 206 -3 0 -6
-1 -7 -2z"/>
<path d="M3460 3238 c0 -16 5 -28 10 -28 13 0 13 20 0 40 -8 12 -10 9 -10 -12z"/>
<path d="M3262 3011 c0 -22 3 -43 7 -46 14 -8 18 38 5 63 -11 22 -12 21 -12
-17z"/>
<path d="M3206 3025 c-3 -8 -1 -15 4 -15 6 0 10 7 10 15 0 8 -2 15 -4 15 -2 0
-6 -7 -10 -15z"/>
<path d="M3077 2954 c-3 -6 -3 -24 2 -39 4 -16 10 -24 14 -19 3 6 3 24 -2 39
-4 16 -10 24 -14 19z"/>
<path d="M3081 2854 c0 -11 3 -14 6 -6 3 7 2 16 -1 19 -3 4 -6 -2 -5 -13z"/>
<path d="M3030 2820 c0 -11 4 -20 9 -20 5 0 7 9 4 20 -3 11 -7 20 -9 20 -2 0
-4 -9 -4 -20z"/>
<path d="M3083 2778 c-2 -16 1 -18 10 -9 7 7 8 14 1 21 -6 6 -10 2 -11 -12z"/>
<path d="M3463 2475 c0 -38 2 -53 4 -32 2 20 2 52 0 70 -2 17 -4 1 -4 -38z"/>
<path d="M3387 2443 c-4 -3 -1 -15 4 -26 6 -11 13 -44 15 -74 2 -30 6 -58 9
-63 3 -5 1 -11 -5 -15 -13 -8 -13 -55 0 -55 6 0 10 8 10 18 0 10 5 23 10 28 7
7 8 19 1 38 -6 14 -11 49 -12 76 -1 30 -6 47 -12 43 -6 -4 -8 0 -4 10 6 17 -5
31 -16 20z"/>
<path d="M3087 2383 c-11 -10 -8 -53 3 -53 6 0 10 14 10 30 0 31 -2 35 -13 23z"/>
<path d="M2016 2362 c-3 -5 -1 -22 4 -38 8 -29 8 -29 9 9 1 36 -3 45 -13 29z"/>
<path d="M3081 2302 c-13 -24 -9 -52 8 -52 13 0 18 22 11 50 l-6 25 -13 -23z"/>
<path d="M2881 2234 c0 -11 3 -14 6 -6 3 7 2 16 -1 19 -3 4 -6 -2 -5 -13z"/>
<path d="M2292 2220 c0 -14 2 -19 5 -12 2 6 2 18 0 25 -3 6 -5 1 -5 -13z"/>
<path d="M3446 2203 c-10 -64 -8 -83 10 -76 13 5 13 7 2 14 -10 7 -10 9 0 9 8
0 12 16 12 45 0 55 -15 59 -24 8z"/>
<path d="M2911 2204 c0 -11 3 -14 6 -6 3 7 2 16 -1 19 -3 4 -6 -2 -5 -13z"/>
<path d="M3210 2206 c0 -8 5 -18 10 -21 6 -3 10 3 10 14 0 12 -4 21 -10 21 -5
0 -10 -6 -10 -14z"/>
<path d="M2291 2185 c-9 -27 -8 -136 0 -128 6 6 8 39 6 74 -2 35 -5 60 -6 54z"/>
<path d="M2206 2164 c-4 -9 -4 -19 -1 -22 3 -3 5 0 5 7 0 7 4 9 10 6 6 -3 7 1
4 9 -8 20 -10 20 -18 0z"/>
<path d="M2990 2110 c0 -18 4 -29 10 -25 6 3 10 15 10 25 0 10 -4 22 -10 25
-6 4 -10 -7 -10 -25z"/>
<path d="M3402 2120 c0 -14 2 -19 5 -12 2 6 2 18 0 25 -3 6 -5 1 -5 -13z"/>
<path d="M2210 2083 c0 -25 2 -44 5 -41 10 10 14 88 5 88 -6 0 -10 -21 -10
-47z"/>
<path d="M2571 2031 c-1 -34 3 -62 9 -66 8 -5 9 4 5 29 -5 23 -3 42 5 51 13
15 7 45 -8 45 -5 0 -10 -27 -11 -59z"/>
<path d="M3001 2054 c0 -11 3 -14 6 -6 3 7 2 16 -1 19 -3 4 -6 -2 -5 -13z"/>
<path d="M2091 2044 c0 -11 3 -14 6 -6 3 7 2 16 -1 19 -3 4 -6 -2 -5 -13z"/>
<path d="M2285 2030 c3 -5 8 -10 11 -10 2 0 4 5 4 10 0 6 -5 10 -11 10 -5 0
-7 -4 -4 -10z"/>
<path d="M2222 1978 c2 -24 8 -33 23 -35 11 -2 14 0 8 3 -7 3 -13 19 -13 35 0
16 -5 29 -11 29 -6 0 -9 -14 -7 -32z"/>
<path d="M2395 1900 c-9 -14 4 -52 16 -45 12 8 12 42 0 50 -5 3 -12 1 -16 -5z"/>
<path d="M2760 1858 c0 -7 5 -20 10 -28 8 -12 10 -11 10 7 0 12 -4 25 -10 28
-5 3 -10 0 -10 -7z"/>
<path d="M2761 1794 c0 -11 3 -14 6 -6 3 7 2 16 -1 19 -3 4 -6 -2 -5 -13z"/>
<path d="M2401 1764 c0 -11 3 -14 6 -6 3 7 2 16 -1 19 -3 4 -6 -2 -5 -13z"/>
</g>
</svg>
