<?xml version="1.0" encoding="UTF-8" standalone="no"?>
<svg width="315px" height="33px" viewBox="0 0 315 33" version="1.1" xmlns="http://www.w3.org/2000/svg" xmlns:xlink="http://www.w3.org/1999/xlink" xmlns:sketch="http://www.bohemiancoding.com/sketch/ns">
    <!-- Generator: Sketch 3.4 (15575) - http://www.bohemiancoding.com/sketch -->
    <title>SERIES + Portfolio + card-travel - Material Icons Copy 8</title>
    <desc>Created with Sketch.</desc>
    <defs>
        <linearGradient x1="0%" y1="100%" x2="100%" y2="0%" id="linearGradient-1">
            <stop stop-color="#0E65C4" offset="0%"></stop>
            <stop stop-color="#044695" offset="100%"></stop>
        </linearGradient>
    </defs>
    <g id="posts" stroke="none" stroke-width="1" fill="none" fill-rule="evenodd" sketch:type="MSPage">
        <g id="Artboard-14" sketch:type="MSArtboardGroup" transform="translate(-1535.000000, -580.000000)" fill="#FFFFFF">
            <g id="RECIPE-Copy-18" sketch:type="MSLayerGroup" transform="translate(1518.000000, 520.000000)">
                <g id="SERIES-+-Portfolio-+-card-travel---Material-Icons-Copy-8" transform="translate(17.000000, 60.000000)" sketch:type="MSShapeGroup">
                    <path d="M-7.9702207,19.3538438 C-7.9702207,19.1256564 -8.05097413,18.9478507 -8.21248341,18.8204213 C-8.37399268,18.692992 -8.65774096,18.5611194 -9.06373676,18.4247997 C-9.46973256,18.2884799 -9.80163655,18.1566074 -10.0594587,18.029178 C-10.8981216,17.6172553 -11.3174467,17.0512404 -11.3174467,16.3311165 C-11.3174467,15.9725363 -11.2129858,15.6561903 -11.004061,15.382069 C-10.7951361,15.1079478 -10.4995341,14.8945809 -10.1172461,14.7419621 C-9.73495812,14.5893432 -9.30526099,14.5130349 -8.82814184,14.5130349 C-8.36287658,14.5130349 -7.94577402,14.5960109 -7.57682163,14.7619654 C-7.20786925,14.9279199 -6.92115754,15.1642533 -6.7166779,15.4709728 C-6.51219827,15.7776922 -6.40995998,16.1281176 -6.40995998,16.5222596 L-7.96577552,16.5222596 C-7.96577552,16.2585105 -8.04652894,16.0540339 -8.20803822,15.9088237 C-8.3695475,15.7636135 -8.58810035,15.6910095 -8.86370334,15.6910095 C-9.14226979,15.6910095 -9.36230436,15.7525007 -9.52381364,15.8754848 C-9.68532292,15.9984689 -9.76607634,16.1547898 -9.76607634,16.3444521 C-9.76607634,16.5104065 -9.67717349,16.6608005 -9.49936511,16.7956386 C-9.32155673,16.9304766 -9.00891502,17.0697577 -8.5614306,17.2134862 C-8.11394619,17.3572146 -7.74648105,17.5120537 -7.45902417,17.6780082 C-6.75964455,18.0810406 -6.40995998,18.6366834 -6.40995998,19.3449534 C-6.40995998,19.9109768 -6.62332684,20.3554911 -7.05006695,20.6785096 C-7.47680705,21.0015282 -8.06208419,21.163035 -8.8059159,21.163035 C-9.33045062,21.163035 -9.80534004,21.0689462 -10.2305984,20.8807656 C-10.6558568,20.6925851 -10.9759071,20.4347668 -11.1907589,20.1073031 C-11.4056106,19.7798393 -11.5130349,19.402743 -11.5130349,18.9760029 L-9.94832902,18.9760029 C-9.94832902,19.3227292 -9.85868531,19.578325 -9.67939519,19.7427977 C-9.50010508,19.9072704 -9.20894823,19.9895056 -8.8059159,19.9895056 C-8.54809375,19.9895056 -8.34435804,19.9339413 -8.19470266,19.8228111 C-8.04504727,19.7116808 -7.9702207,19.55536 -7.9702207,19.3538438 L-7.9702207,19.3538438 Z M-1.59582222,18.3314508 L-4.04956557,18.3314508 L-4.04956557,19.8739307 L-1.15130349,19.8739307 L-1.15130349,21.0741313 L-5.60982628,21.0741313 L-5.60982628,14.6019387 L-1.14241312,14.6019387 L-1.14241312,15.8065844 L-4.04956557,15.8065844 L-4.04956557,17.1712569 L-1.59582222,17.1712569 L-1.59582222,18.3314508 Z M1.88920457,18.789305 L1.044619,18.789305 L1.044619,21.0741313 L-0.515641719,21.0741313 L-0.515641719,14.6019387 L2.03145056,14.6019387 C2.79899006,14.6019387 3.39908434,14.7723358 3.83175139,15.1131352 C4.26441845,15.4539346 4.48074873,15.9354917 4.48074873,16.5578211 C4.48074873,17.0082689 4.3896233,17.3816609 4.20736971,17.6780082 C4.02511613,17.9743555 3.73988613,18.2143932 3.35167117,18.3981286 L4.70300809,21.0074535 L4.70300809,21.0741313 L3.03161769,21.0741313 L1.88920457,18.789305 Z M1.044619,17.5846593 L2.03145056,17.5846593 C2.32779786,17.5846593 2.55079586,17.5068693 2.70045124,17.351287 C2.85010663,17.1957046 2.9249332,16.9786335 2.9249332,16.700067 C2.9249332,16.4215006 2.84936577,16.2029477 2.69822865,16.0444019 C2.54709153,15.8858561 2.32483439,15.8065844 2.03145056,15.8065844 L1.044619,15.8065844 L1.044619,17.5846593 Z M7.08562844,21.0741313 L5.52981291,21.0741313 L5.52981291,14.6019387 L7.08562844,14.6019387 L7.08562844,21.0741313 Z M12.1842582,18.3314508 L9.73051485,18.3314508 L9.73051485,19.8739307 L12.6287769,19.8739307 L12.6287769,21.0741313 L8.17025413,21.0741313 L8.17025413,14.6019387 L12.6376673,14.6019387 L12.6376673,15.8065844 L9.73051485,15.8065844 L9.73051485,17.1712569 L12.1842582,17.1712569 L12.1842582,18.3314508 Z M16.6027743,19.3538438 C16.6027743,19.1256564 16.5220209,18.9478507 16.3605116,18.8204213 C16.1990023,18.692992 15.915254,18.5611194 15.5092582,18.4247997 C15.1032624,18.2884799 14.7713585,18.1566074 14.5135363,18.029178 C13.6748735,17.6172553 13.2555483,17.0512404 13.2555483,16.3311165 C13.2555483,15.9725363 13.3600092,15.6561903 13.568934,15.382069 C13.7778589,15.1079478 14.0734609,14.8945809 14.4557489,14.7419621 C14.8380369,14.5893432 15.267734,14.5130349 15.7448532,14.5130349 C16.2101184,14.5130349 16.627221,14.5960109 16.9961734,14.7619654 C17.3651258,14.9279199 17.6518375,15.1642533 17.8563171,15.4709728 C18.0607967,15.7776922 18.163035,16.1281176 18.163035,16.5222596 L16.6072195,16.5222596 C16.6072195,16.2585105 16.5264661,16.0540339 16.3649568,15.9088237 C16.2034475,15.7636135 15.9848947,15.6910095 15.7092917,15.6910095 C15.4307252,15.6910095 15.2106906,15.7525007 15.0491814,15.8754848 C14.8876721,15.9984689 14.8069187,16.1547898 14.8069187,16.3444521 C14.8069187,16.5104065 14.8958215,16.6608005 15.0736299,16.7956386 C15.2514383,16.9304766 15.56408,17.0697577 16.0115644,17.2134862 C16.4590488,17.3572146 16.826514,17.5120537 17.1139708,17.6780082 C17.8133505,18.0810406 18.163035,18.6366834 18.163035,19.3449534 C18.163035,19.9109768 17.9496682,20.3554911 17.5229281,20.6785096 C17.096188,21.0015282 16.5109108,21.163035 15.7670791,21.163035 C15.2425444,21.163035 14.767655,21.0689462 14.3423966,20.8807656 C13.9171382,20.6925851 13.5970879,20.4347668 13.3822362,20.1073031 C13.1673844,19.7798393 13.0599601,19.402743 13.0599601,18.9760029 L14.624666,18.9760029 C14.624666,19.3227292 14.7143097,19.578325 14.8935998,19.7427977 C15.0728899,19.9072704 15.3640468,19.9895056 15.7670791,19.9895056 C16.0249013,19.9895056 16.228637,19.9339413 16.3782923,19.8228111 C16.5279477,19.7116808 16.6027743,19.55536 16.6027743,19.3538438 L16.6027743,19.3538438 Z" id="SERIES" transform="translate(3.325000, 17.838035) rotate(-90.000000) translate(-3.325000, -17.838035) "></path>
                    <g id="Portfolio-+-card-travel---Material-Icons-Copy-8" transform="translate(8.000000, 0.000000)">
                        <path d="M49.6572266,24.0634766 C49.6572266,23.0107369 49.2846717,22.1904326 48.5395508,21.6025391 C47.7944299,21.0146455 46.4853609,20.4062531 44.6123047,19.7773438 C42.7392484,19.1484344 41.2080138,18.540042 40.0185547,17.9521484 C36.1493947,16.0517483 34.2148438,13.4404463 34.2148438,10.1181641 C34.2148438,8.46385892 34.6967725,7.00440085 35.6606445,5.73974609 C36.6245165,4.47509133 37.9882724,3.49072618 39.7519531,2.78662109 C41.5156338,2.08251601 43.4980359,1.73046875 45.6992188,1.73046875 C47.8457139,1.73046875 49.770011,2.11327742 51.472168,2.87890625 C53.1743249,3.64453508 54.4970656,4.73485621 55.4404297,6.14990234 C56.3837938,7.56494848 56.8554688,9.18163153 56.8554688,11 L49.6777344,11 C49.6777344,9.78319704 49.3051795,8.8398471 48.5600586,8.16992188 C47.8149377,7.49999665 46.806647,7.16503906 45.5351562,7.16503906 C44.2499936,7.16503906 43.234867,7.44872763 42.4897461,8.01611328 C41.7446252,8.58349893 41.3720703,9.30468313 41.3720703,10.1796875 C41.3720703,10.9453163 41.7822225,11.639157 42.6025391,12.2612305 C43.4228557,12.8833039 44.8652241,13.5258756 46.9296875,14.1889648 C48.9941509,14.8520541 50.6894465,15.5664024 52.015625,16.3320312 C55.2422036,18.1914155 56.8554688,20.7548665 56.8554688,24.0224609 C56.8554688,26.6338021 55.8711036,28.6845629 53.9023438,30.1748047 C51.9335839,31.6650465 49.2334156,32.4101562 45.8017578,32.4101562 C43.3818238,32.4101562 41.1909278,31.9760786 39.2290039,31.1079102 C37.26708,30.2397418 35.7905323,29.0503005 34.7993164,27.5395508 C33.8081005,26.028801 33.3125,24.2890723 33.3125,22.3203125 L40.53125,22.3203125 C40.53125,23.9199299 40.9448201,25.0991173 41.7719727,25.8579102 C42.5991252,26.616703 43.9423735,26.9960938 45.8017578,26.9960938 C46.9912169,26.9960938 47.9311489,26.7397487 48.621582,26.2270508 C49.3120152,25.7143529 49.6572266,24.9931687 49.6572266,24.0634766 L49.6572266,24.0634766 Z M58.3574219,20.7001953 C58.3574219,18.4853405 58.7880816,16.5131922 59.6494141,14.7836914 C60.5107465,13.0541906 61.7480388,11.724614 63.3613281,10.7949219 C64.9746174,9.86522973 66.8681532,9.40039062 69.0419922,9.40039062 C72.3642744,9.40039062 74.9824123,10.4291889 76.8964844,12.4868164 C78.8105564,14.5444439 79.7675781,17.3437323 79.7675781,20.8847656 L79.7675781,21.1308594 C79.7675781,24.589861 78.8071385,27.3344625 76.8862305,29.3647461 C74.9653224,31.3950297 72.3642742,32.4101562 69.0830078,32.4101562 C65.9247889,32.4101562 63.3886814,31.4633884 61.4746094,29.5698242 C59.5605373,27.6762601 58.5283211,25.1093912 58.3779297,21.8691406 L58.3574219,20.7001953 Z M65.2685547,21.1308594 C65.2685547,23.1816509 65.5898405,24.6855421 66.2324219,25.6425781 C66.8750032,26.5996142 67.825189,27.078125 69.0830078,27.078125 C71.5439576,27.078125 72.8017575,25.1845892 72.8564453,21.3974609 L72.8564453,20.7001953 C72.8564453,16.7216598 71.5849737,14.7324219 69.0419922,14.7324219 C66.7314338,14.7324219 65.4804697,16.448225 65.2890625,19.8798828 L65.2685547,21.1308594 Z M91.1953125,27.078125 C92.1660205,27.078125 92.9179661,26.814944 93.4511719,26.2885742 C93.9843777,25.7622044 94.2441407,25.0273485 94.2304688,24.0839844 L100.710938,24.0839844 C100.710938,26.5175903 99.8393642,28.5136641 98.0961914,30.0722656 C96.3530186,31.6308672 94.1074356,32.4101562 91.359375,32.4101562 C88.1327964,32.4101562 85.589853,31.3984476 83.7304688,29.375 C81.8710845,27.3515524 80.9414062,24.548846 80.9414062,20.9667969 L80.9414062,20.6796875 C80.9414062,18.4374888 81.3549763,16.4585047 82.1821289,14.7426758 C83.0092815,13.0268469 84.2021406,11.7075241 85.7607422,10.784668 C87.3193437,9.86181179 89.1650284,9.40039062 91.2978516,9.40039062 C94.1826316,9.40039062 96.4726478,10.2001873 98.1679688,11.7998047 C99.8632897,13.3994221 100.710938,15.5663926 100.710938,18.3007812 L94.2304688,18.3007812 C94.2304688,17.152338 93.9501981,16.2705109 93.3896484,15.6552734 C92.8290988,15.040036 92.0771532,14.7324219 91.1337891,14.7324219 C89.3427645,14.7324219 88.2968765,15.874012 87.9960938,18.1572266 C87.9003901,18.8818396 87.8525391,19.8798765 87.8525391,21.1513672 C87.8525391,23.379894 88.119138,24.9248004 88.6523438,25.7861328 C89.1855495,26.6474652 90.0331973,27.078125 91.1953125,27.078125 L91.1953125,27.078125 Z M109.923828,32 L102.992188,32 L102.992188,9.81054688 L109.923828,9.81054688 L109.923828,32 Z M102.582031,4.08886719 C102.582031,3.10448727 102.937496,2.29785471 103.648438,1.66894531 C104.359379,1.04003592 105.282221,0.725585938 106.416992,0.725585938 C107.551763,0.725585938 108.474606,1.04003592 109.185547,1.66894531 C109.896488,2.29785471 110.251953,3.10448727 110.251953,4.08886719 C110.251953,5.07324711 109.896488,5.87987967 109.185547,6.50878906 C108.474606,7.13769846 107.551763,7.45214844 106.416992,7.45214844 C105.282221,7.45214844 104.359379,7.13769846 103.648438,6.50878906 C102.937496,5.87987967 102.582031,5.07324711 102.582031,4.08886719 L102.582031,4.08886719 Z M125.678711,32 C125.432616,31.5488259 125.213868,30.8857466 125.022461,30.0107422 C123.75097,31.6103596 121.973644,32.4101562 119.69043,32.4101562 C117.598622,32.4101562 115.821296,31.7778384 114.358398,30.5131836 C112.8955,29.2485288 112.164062,27.6591893 112.164062,25.7451172 C112.164062,23.3388552 113.052725,21.520514 114.830078,20.2900391 C116.607431,19.0595642 119.191389,18.4443359 122.582031,18.4443359 L124.714844,18.4443359 L124.714844,17.2753906 C124.714844,15.2382711 123.833017,14.2197266 122.069336,14.2197266 C120.428703,14.2197266 119.608398,15.0263591 119.608398,16.6396484 L112.697266,16.6396484 C112.697266,14.4931533 113.609854,12.7500067 115.435059,11.4101562 C117.260263,10.0703058 119.587876,9.40039062 122.417969,9.40039062 C125.248061,9.40039062 127.48339,10.0908134 129.124023,11.4716797 C130.764657,12.852546 131.605469,14.7460817 131.646484,17.1523438 L131.646484,26.9755859 C131.673828,29.0127055 131.988278,30.5712837 132.589844,31.6513672 L132.589844,32 L125.678711,32 Z M121.351562,27.4882812 C122.212895,27.4882812 122.927243,27.3037128 123.494629,26.9345703 C124.062015,26.5654278 124.468749,26.1484398 124.714844,25.6835938 L124.714844,22.1357422 L122.705078,22.1357422 C120.298816,22.1357422 119.095703,23.2158095 119.095703,25.3759766 C119.095703,26.004886 119.307615,26.5141582 119.731445,26.9038086 C120.155276,27.293459 120.695309,27.4882812 121.351562,27.4882812 L121.351562,27.4882812 Z M141.761719,32 L134.830078,32 L134.830078,0.5 L141.761719,0.5 L141.761719,32 Z M179.731445,32 L172.574219,32 L161.992188,13.4199219 L161.992188,32 L154.793945,32 L154.793945,2.140625 L161.992188,2.140625 L172.553711,20.7207031 L172.553711,2.140625 L179.731445,2.140625 L179.731445,32 Z M193.702148,32.4101562 C190.297835,32.4101562 187.542979,31.3950297 185.4375,29.3647461 C183.332021,27.3344625 182.279297,24.6923991 182.279297,21.4384766 L182.279297,20.8642578 C182.279297,18.5947152 182.699703,16.5918056 183.540527,14.8554688 C184.381352,13.1191319 185.60839,11.7758837 187.22168,10.8256836 C188.834969,9.87548353 190.749012,9.40039062 192.963867,9.40039062 C196.08107,9.40039062 198.541983,10.3676661 200.34668,12.3022461 C202.151376,14.2368261 203.053711,16.9335765 203.053711,20.3925781 L203.053711,23.0791016 L189.313477,23.0791016 C189.559572,24.3232484 190.099605,25.3007777 190.933594,26.0117188 C191.767582,26.7226598 192.84765,27.078125 194.173828,27.078125 C196.361339,27.078125 198.070306,26.3125077 199.300781,24.78125 L202.458984,28.5136719 C201.597652,29.7031309 200.377449,30.6498988 198.79834,31.3540039 C197.21923,32.058109 195.520517,32.4101562 193.702148,32.4101562 L193.702148,32.4101562 Z M192.922852,14.7324219 C190.899404,14.7324219 189.696291,16.0722522 189.313477,18.7519531 L196.286133,18.7519531 L196.286133,18.21875 C196.313477,17.1113226 196.033206,16.253421 195.445312,15.6450195 C194.857419,15.0366181 194.016607,14.7324219 192.922852,14.7324219 L192.922852,14.7324219 Z M212.881836,4.29394531 L212.881836,9.81054688 L216.532227,9.81054688 L216.532227,14.609375 L212.881836,14.609375 L212.881836,24.7607422 C212.881836,25.5947307 213.032225,26.1757796 213.333008,26.5039062 C213.633791,26.8320329 214.228511,26.9960938 215.117188,26.9960938 C215.800785,26.9960938 216.374998,26.9550785 216.839844,26.8730469 L216.839844,31.8154297 C215.595697,32.211916 214.296882,32.4101562 212.943359,32.4101562 C210.564441,32.4101562 208.807623,31.849615 207.672852,30.7285156 C206.53808,29.6074163 205.970703,27.9052849 205.970703,25.6220703 L205.970703,14.609375 L203.140625,14.609375 L203.140625,9.81054688 L205.970703,9.81054688 L205.970703,4.29394531 L212.881836,4.29394531 Z M237.414062,22.8945312 L239.649414,9.81054688 L246.273438,9.81054688 L241.043945,32 L235.199219,32 L231.52832,18.8339844 L227.836914,32 L221.992188,32 L216.762695,9.81054688 L223.386719,9.81054688 L225.581055,23.2021484 L229.108398,9.81054688 L233.927734,9.81054688 L237.414062,22.8945312 Z M246.873047,20.7001953 C246.873047,18.4853405 247.303707,16.5131922 248.165039,14.7836914 C249.026371,13.0541906 250.263664,11.724614 251.876953,10.7949219 C253.490242,9.86522973 255.383778,9.40039062 257.557617,9.40039062 C260.879899,9.40039062 263.498037,10.4291889 265.412109,12.4868164 C267.326181,14.5444439 268.283203,17.3437323 268.283203,20.8847656 L268.283203,21.1308594 C268.283203,24.589861 267.322764,27.3344625 265.401855,29.3647461 C263.480947,31.3950297 260.879899,32.4101562 257.598633,32.4101562 C254.440414,32.4101562 251.904306,31.4633884 249.990234,29.5698242 C248.076162,27.6762601 247.043946,25.1093912 246.893555,21.8691406 L246.873047,20.7001953 Z M253.78418,21.1308594 C253.78418,23.1816509 254.105466,24.6855421 254.748047,25.6425781 C255.390628,26.5996142 256.340814,27.078125 257.598633,27.078125 C260.059583,27.078125 261.317383,25.1845892 261.37207,21.3974609 L261.37207,20.7001953 C261.37207,16.7216598 260.100599,14.7324219 257.557617,14.7324219 C255.247059,14.7324219 253.996095,16.448225 253.804687,19.8798828 L253.78418,21.1308594 Z M283.750977,16.0654297 L281.474609,15.9013672 C279.30077,15.9013672 277.906253,16.5849541 277.291016,17.9521484 L277.291016,32 L270.379883,32 L270.379883,9.81054688 L276.860352,9.81054688 L277.085938,12.6611328 C278.248053,10.4872938 279.868154,9.40039062 281.946289,9.40039062 C282.684574,9.40039062 283.327146,9.48242105 283.874023,9.64648438 L283.750977,16.0654297 Z M294.15332,23.7353516 L292.205078,25.6835938 L292.205078,32 L285.293945,32 L285.293945,0.479492188 L292.205078,0.479492188 L292.205078,17.2138672 L292.902344,16.2910156 L298.111328,9.81054688 L306.396484,9.81054688 L298.624023,18.9365234 L306.90918,32 L298.993164,32 L294.15332,23.7353516 Z" id="Social-Network"></path>
                        <path d="M5,26.359375 L5,28 L25,28 L25,26.359375 C25,24.8489508 23.8541781,23.611984 21.5625,22.6484375 C19.2708219,21.684891 17.0833438,21.203125 15,21.203125 C12.9166563,21.203125 10.7291781,21.684891 8.4375,22.6484375 C6.14582187,23.611984 5,24.8489508 5,26.359375 L5,26.359375 Z M20,13 C20,11.6458266 19.5052133,10.4739633 18.515625,9.484375 C17.5260367,8.49478672 16.3541734,8 15,8 C13.6458266,8 12.4739633,8.49478672 11.484375,9.484375 C10.4947867,10.4739633 10,11.6458266 10,13 C10,14.3541734 10.4947867,15.5260367 11.484375,16.515625 C12.4739633,17.5052133 13.6458266,18 15,18 C16.3541734,18 17.5260367,17.5052133 18.515625,16.515625 C19.5052133,15.5260367 20,14.3541734 20,13 L20,13 Z M0,6.359375 C0,5.47395391 0.325517578,4.69271172 0.9765625,4.015625 C1.62760742,3.33853828 2.42187031,3 3.359375,3 L26.640625,3 C27.5260461,3 28.3072883,3.33853828 28.984375,4.015625 C29.6614617,4.69271172 30,5.47395391 30,6.359375 L30,29.640625 C30,30.5260461 29.6614617,31.3072883 28.984375,31.984375 C28.3072883,32.6614617 27.5260461,33 26.640625,33 L3.359375,33 C2.42187031,33 1.62760742,32.6614617 0.9765625,31.984375 C0.325517578,31.3072883 0,30.5260461 0,29.640625 L0,6.359375 Z" id="account-box---Material-Icons"></path>
                    </g>
                </g>
            </g>
        </g>
    </g>
</svg>