<?xml version="1.0" encoding="UTF-8" standalone="no"?>
<svg width="39px" height="42px" viewBox="0 0 39 42" version="1.1" xmlns="http://www.w3.org/2000/svg" xmlns:xlink="http://www.w3.org/1999/xlink" xmlns:sketch="http://www.bohemiancoding.com/sketch/ns">
    <!-- Generator: Sketch 3.4.2 (15855) - http://www.bohemiancoding.com/sketch -->
    <title>Layer_1</title>
    <desc>Created with Sketch.</desc>
    <defs></defs>
    <g id="posts" stroke="none" stroke-width="1" fill="none" fill-rule="evenodd" sketch:type="MSPage">
        <g id="timeline-copy-2" sketch:type="MSArtboardGroup" transform="translate(-333.000000, -582.000000)">
            <g id="Group" sketch:type="MSLayerGroup" transform="translate(321.000000, 318.000000)">
                <g id="Oval-38-+-angular-+-angular" transform="translate(0.000000, 253.720102)" sketch:type="MSShapeGroup">
                    <g id="angular" transform="translate(12.370861, 10.829517)">
                        <g id="Layer_1">
                            <path d="M0.0674865123,6.42365943 L19.1313431,-3.55271368e-15 L38.6022851,6.42365943 L35.8034278,32.1191159 L19.1313431,40.9392636 L2.76644711,32.1191159 L0.0674865123,6.42365943 Z" id="Shape" fill="#B3B3B3"></path>
                            <path d="M2.14665431,7.84825537 L19.0792702,2.14266632 L36.3735638,7.84825537 L33.8874773,30.6711847 L19.0792702,38.5051933 L4.54384188,30.6711847 L2.14665431,7.84825537 Z" id="Shape" fill="#E43137"></path>
                            <path d="M19.0792702,38.5051933 L33.8874773,30.6711847 L36.3735638,7.84825537 L19.0792702,2.14266632 L19.0792702,38.5051933 Z" id="Shape" fill="#B52F32"></path>
                            <path d="M19.1056816,3.6335016 L6.87979169,29.8854831 L11.6564204,29.8854831 L14.113346,23.7634624 L24.4417818,23.9074039 L26.7466545,30.1311172 L31.3315715,30.1311172 L19.1056816,3.6335016 L19.1056816,3.6335016 Z M15.4724077,20.469509 L19.1179291,12.047698 L22.7635339,20.469509 L15.4724077,20.469509 L15.4724077,20.469509 Z" id="Shape" fill="#FFFFFF"></path>
                            <path d="M19.1056816,3.62916206 L19.0947671,12.0763553 L22.7504532,20.4587011 L19.0795202,20.4695909 L19.0795202,23.8330587 L24.4286178,23.9058483 L26.7466545,30.1311172 L31.3316548,30.1311172 L19.1056816,3.62916206 Z" id="Shape" fill="#B3B3B3"></path>
                        </g>
                    </g>
                </g>
            </g>
        </g>
    </g>
</svg>