<?xml version="1.0" encoding="UTF-8" standalone="no"?>
<svg width="117px" height="139px" viewBox="0 0 117 139" version="1.1" xmlns="http://www.w3.org/2000/svg" xmlns:xlink="http://www.w3.org/1999/xlink" xmlns:sketch="http://www.bohemiancoding.com/sketch/ns">
    <!-- Generator: Sketch 3.4 (15575) - http://www.bohemiancoding.com/sketch -->
    <title>Layer_1</title>
    <desc>Created with Sketch.</desc>
    <defs></defs>
    <g id="posts" stroke="none" stroke-width="1" fill="none" fill-rule="evenodd" sketch:type="MSPage">
        <g id="Artboard-14" sketch:type="MSArtboardGroup" transform="translate(-487.000000, -998.000000)">
            <g id="RECIPE-Copy-31" sketch:type="MSLayerGroup" transform="translate(254.000000, 993.000000)">
                <g id="Mask-+-Layer_1" sketch:type="MSShapeGroup">
                    <g id="Layer_1" transform="translate(315.396653, 79.491827) rotate(-28.000000) translate(-315.396653, -79.491827) translate(247.396653, 7.302832)">
                        <path d="M0.237413793,24.3239024 L67.303,2.03349282 L135.80069,24.3239024 L125.954466,113.488382 L67.303,144.094722 L9.7322069,113.488382 L0.237413793,24.3239024 Z" id="Shape" fill="#E43137"></path>
                        <path d="M7.55181034,29.2673194 L67.1198103,9.46864883 L127.960172,29.2673194 L119.214259,108.463991 L67.1198103,135.64838 L15.9849828,108.463991 L7.55181034,29.2673194 Z" id="Shape" fill="#E43137"></path>
                        <path d="M67.2788382,143.96942 C67.2788382,144.195067 67.4455563,144.292466 67.6349001,144.195334 L125.396077,114.564469 L136,24.4019139 L67.2788382,1.95213573 L67.2788382,143.96942 Z" id="Shape" fill="#B52F32"></path>
                        <path d="M67.2127241,14.6419195 L24.2027241,105.737568 L41.0066379,105.737568 L49.6499655,84.4938592 L85.9848276,84.9933435 L94.0932414,106.58993 L110.222724,106.58993 L67.2127241,14.6419195 L67.2127241,14.6419195 Z M54.431069,73.0636812 L67.2558103,43.8395888 L80.0808448,73.0636812 L54.431069,73.0636812 L54.431069,73.0636812 Z" id="Shape" fill="#FFFFFF"></path>
                        <path d="M67.2127241,14.6268611 L67.1743276,43.939031 L80.0348276,73.0261773 L67.1206897,73.0639654 L67.1206897,84.7353618 L85.9385172,84.9879452 L94.0932414,106.58993 L110.223017,106.58993 L67.2127241,14.6268611 Z" id="Shape" fill="#B3B3B3"></path>
                    </g>
                </g>
            </g>
        </g>
    </g>
</svg>