<?xml version="1.0" encoding="UTF-8" standalone="no"?>
<svg width="116px" height="140px" viewBox="0 0 116 140" version="1.1" xmlns="http://www.w3.org/2000/svg" xmlns:xlink="http://www.w3.org/1999/xlink" xmlns:sketch="http://www.bohemiancoding.com/sketch/ns">
    <!-- Generator: Sketch 3.4 (15575) - http://www.bohemiancoding.com/sketch -->
    <title>angular</title>
    <desc>Created with Sketch.</desc>
    <defs></defs>
    <g id="posts" stroke="none" stroke-width="1" fill="none" fill-rule="evenodd" sketch:type="MSPage">
        <g id="Artboard-14" sketch:type="MSArtboardGroup" transform="translate(-867.000000, -996.000000)">
            <g id="Bitmap-Copy-6-+-angular-Copy-Copy-Copy" sketch:type="MSLayerGroup" transform="translate(633.000000, 992.000000)">
                <g id="angular" transform="translate(316.794728, 79.719990) rotate(-28.000000) translate(-316.794728, -79.719990) translate(249.294728, 7.292982)" sketch:type="MSShapeGroup">
                    <g id="Layer_1" transform="translate(-0.000000, 0.000000)">
                        <path d="M0.23578853,22.6507831 L66.8422641,1.84741111e-13 L134.871039,22.6507831 L125.09222,113.256803 L66.8422641,144.357961 L9.66558316,113.256803 L0.23578853,22.6507831 Z" id="Shape" fill="#B3B3B3"></path>
                        <path d="M7.50011295,27.6741213 L66.6603285,7.55536166 L127.084196,27.6741213 L118.398154,108.151181 L66.6603285,135.775066 L15.8755544,108.151181 L7.50011295,27.6741213 Z" id="Shape" fill="#E43137"></path>
                        <path d="M66.6603285,135.775066 L118.398154,108.151181 L127.084196,27.6741213 L66.6603285,7.55536166 L66.6603285,135.775066 Z" id="Shape" fill="#B52F32"></path>
                        <path d="M66.7526062,12.8122696 L24.0370396,105.38068 L40.7259189,105.38068 L49.3100769,83.7935196 L85.3962016,84.3010791 L93.4491076,106.246822 L109.468173,106.246822 L66.7526062,12.8122696 L66.7526062,12.8122696 Z M54.0584504,72.1785477 L66.7953975,42.4819834 L79.5326357,72.1785477 L54.0584504,72.1785477 L54.0584504,72.1785477 Z" id="Shape" fill="#FFFFFF"></path>
                        <path d="M66.7526062,12.7969678 L66.7144725,42.5830334 L79.4869335,72.1404374 L66.6612018,72.1788364 L66.6612018,84.0389266 L85.3502083,84.2955935 L93.4491076,106.246822 L109.468464,106.246822 L66.7526062,12.7969678 Z" id="Shape" fill="#B3B3B3"></path>
                    </g>
                </g>
            </g>
        </g>
    </g>
</svg>