<?xml version="1.0" encoding="UTF-8" standalone="no"?>
<svg width="256px" height="70px" viewBox="0 0 256 70" version="1.1" xmlns="http://www.w3.org/2000/svg" xmlns:xlink="http://www.w3.org/1999/xlink" xmlns:sketch="http://www.bohemiancoding.com/sketch/ns">
    <!-- Generator: Sketch 3.4 (15575) - http://www.bohemiancoding.com/sketch -->
    <title>angular + NGULAR</title>
    <desc>Created with Sketch.</desc>
    <defs></defs>
    <g id="posts" stroke="none" stroke-width="1" fill="none" fill-rule="evenodd" sketch:type="MSPage">
        <g id="My-Recipes" sketch:type="MSArtboardGroup" transform="translate(-678.000000, -430.000000)">
            <g id="RECIPE-Copy" sketch:type="MSLayerGroup" transform="translate(631.000000, 405.000000)">
                <g id="angular-+-NGULAR" transform="translate(47.000000, 24.000000)" sketch:type="MSShapeGroup">
                    <g id="angular">
                        <g id="Layer_1">
                            <path d="M0.115215517,11.9616367 L32.66175,1 L65.9032759,11.9616367 L61.1249612,55.8095808 L32.66175,70.8606986 L4.72298276,55.8095808 L0.115215517,11.9616367 Z" id="Shape" fill="#E43137"></path>
                            <path d="M3.66484914,14.3926347 L32.5728491,4.65634731 L62.098319,14.3926347 L57.8539784,53.3387625 L32.5728491,66.7070858 L7.7574181,53.3387625 L3.66484914,14.3926347 Z" id="Shape" fill="#E43137"></path>
                            <path d="M32.6500244,70.6061063 C32.6500244,70.8236478 32.8017694,70.9211185 33.0066266,70.8146278 L60.8539784,56.3387625 L65.9999999,12 L32.6500244,0.959991455 L32.6500244,70.6061063 Z" id="Shape" fill="#B52F32"></path>
                            <path d="M32.6179397,7.20037924 L11.7454397,51.998004 L19.9002802,51.998004 L24.0948362,41.5510978 L41.727931,41.7967265 L45.6628966,52.4171657 L53.4904397,52.4171657 L32.6179397,7.20037924 L32.6179397,7.20037924 Z M26.4150776,35.9301397 L32.6388491,21.5587625 L38.8627629,35.9301397 L26.4150776,35.9301397 L26.4150776,35.9301397 Z" id="Shape" fill="#FFFFFF"></path>
                            <path d="M32.6179397,7.19297405 L32.599306,21.6076647 L38.840431,35.9116966 L32.5732759,35.9302794 L32.5732759,41.6698603 L41.7054569,41.7940719 L45.6628966,52.4171657 L53.4905819,52.4171657 L32.6179397,7.19297405 Z" id="Shape" fill="#B3B3B3"></path>
                        </g>
                    </g>
                    <path d="M72,53.5 L72,19.5351562 L76.7275391,19.5351562 L93.824707,45.7661133 L93.824707,19.5351562 L97.9555664,19.5351562 L97.9555664,53.5 L93.2509766,53.5 L76.1308594,27.269043 L76.1308594,53.5 L72,53.5 Z M130.241699,52.5820312 C126.126119,53.760097 122.538427,54.3491211 119.478516,54.3491211 C114.077772,54.3491211 109.93548,52.8115388 107.051514,49.7363281 C104.167547,46.6611174 102.725586,42.2549115 102.725586,36.5175781 C102.725586,30.8873416 104.186672,26.5079095 107.108887,23.3791504 C110.031102,20.2503913 114.131321,18.6860352 119.409668,18.6860352 C122.867368,18.6860352 126.462709,19.1985626 130.195801,20.2236328 L130.195801,24.6757812 C125.514137,23.0846275 121.926445,22.2890625 119.432617,22.2890625 C115.760724,22.2890625 112.911224,23.5359576 110.884033,26.0297852 C108.856842,28.5236127 107.843262,32.0348081 107.843262,36.5634766 C107.843262,41.0462464 108.929514,44.5306679 111.102051,47.0168457 C113.274588,49.5030235 116.319154,50.7460938 120.23584,50.7460938 C121.842293,50.7460938 123.578767,50.4630562 125.445312,49.8969727 L125.445312,38.8354492 L130.241699,38.8354492 L130.241699,52.5820312 Z M137.411621,19.5351562 L142.230957,19.5351562 L142.230957,40.9697266 C142.230957,44.3815275 142.862054,46.8638431 144.124268,48.416748 C145.386481,49.9696529 147.394517,50.7460938 150.148438,50.7460938 C152.841159,50.7460938 154.74975,50.0155509 155.874268,48.5544434 C156.998785,47.0933358 157.561035,44.6186698 157.561035,41.1303711 L157.561035,19.5351562 L161.783691,19.5351562 L161.783691,41.0615234 C161.783691,45.6972888 160.831308,49.0707902 158.926514,51.1821289 C157.021719,53.2934676 153.988628,54.3491211 149.827148,54.3491211 C145.589172,54.3491211 142.460459,53.2552193 140.440918,51.0673828 C138.421377,48.8795464 137.411621,45.4983953 137.411621,40.9238281 L137.411621,19.5351562 Z M169.251953,53.5 L169.251953,19.5351562 L174.071289,19.5351562 L174.071289,49.8969727 L190.355469,49.8969727 L190.355469,53.5 L169.251953,53.5 Z M200.766724,44 L204.616699,44 L206.116699,41.5107422 L215.524414,41.5107422 L209.116699,24.8699951 L200.766724,44 Z M220.619141,53.5 L216.924316,44 L200.766724,44 L196.794434,53.5 L192.319336,53.5 L209.116699,15 L225.828613,53.5 L220.619141,53.5 Z M230.739746,53.5 L230.739746,19.5351562 L241.020996,19.5351562 C244.279801,19.5351562 246.777416,20.2542246 248.513916,21.6923828 C250.250416,23.130541 251.118652,25.2188991 251.118652,27.9575195 C251.118652,32.486188 248.831403,35.6990465 244.256836,37.5961914 L255.59375,53.5 L249.672852,53.5 L239.916687,39.0999756 L235.513184,39.0999756 L235.513184,53.5 L230.739746,53.5 Z M235.513184,35.5307617 L235.513184,39.0999756 L239.916687,39.0999756 L239.916687,35.5300293 C245.116699,35 247.161621,31.2291279 247.161621,27.3935547 C247.161621,23.1381836 243.621933,23.1381836 238.54248,23.1381836 L235.513184,23.1381836 L235.513184,35.5307617 Z" id="NGULAR" fill="#FFFFFF"></path>
                </g>
            </g>
        </g>
    </g>
</svg>