<?xml version="1.0" encoding="UTF-8" standalone="no"?>
<svg width="39px" height="42px" viewBox="0 0 39 42" version="1.1" xmlns="http://www.w3.org/2000/svg" xmlns:xlink="http://www.w3.org/1999/xlink" xmlns:sketch="http://www.bohemiancoding.com/sketch/ns">
    <!-- Generator: Sketch 3.4.2 (15855) - http://www.bohemiancoding.com/sketch -->
    <title>Layer_1</title>
    <desc>Created with Sketch.</desc>
    <defs></defs>
    <g id="posts" stroke="none" stroke-width="1" fill="none" fill-rule="evenodd" sketch:type="MSPage">
        <g id="timeline-copy-2" sketch:type="MSArtboardGroup" transform="translate(-333.000000, -459.000000)">
            <g id="Group" sketch:type="MSLayerGroup" transform="translate(321.000000, 318.000000)">
                <g id="Group-Copy-2" transform="translate(0.000000, 123.765903)" sketch:type="MSShapeGroup">
                    <g id="Oval-38-+-angular" transform="translate(0.000000, 6.188295)">
                        <g id="angular" transform="translate(12.370861, 10.829517)">
                            <g id="Layer_1">
                                <path d="M0.0674865123,7.00967223 L19.1313431,0.5860128 L38.6022851,7.00967223 L35.8034278,32.7051287 L19.1313431,41.5252764 L2.76644711,32.7051287 L0.0674865123,7.00967223 Z" id="Shape" fill="#E43137"></path>
                                <path d="M2.14665431,8.43426817 L19.0792702,2.72867912 L36.3735638,8.43426817 L33.8874773,31.2571975 L19.0792702,39.0912061 L4.54384188,31.2571975 L2.14665431,8.43426817 Z" id="Shape" fill="#E43137"></path>
                                <path d="M19.124475,41.2006785 C19.124475,41.4250333 19.2879815,41.521874 19.4848871,41.4194693 L35.6447019,33.0152359 L38.6589403,7.03215361 L19.124475,0.56256728 L19.124475,41.2006785 Z" id="Shape" fill="#B52F32"></path>
                                <path d="M19.1056816,4.2195144 L6.87979169,30.4714959 L11.6564204,30.4714959 L14.113346,24.3494752 L24.4417818,24.4934167 L26.7466545,30.71713 L31.3315715,30.71713 L19.1056816,4.2195144 L19.1056816,4.2195144 Z M15.4724077,21.0555218 L19.1179291,12.6337108 L22.7635339,21.0555218 L15.4724077,21.0555218 L15.4724077,21.0555218 Z" id="Shape" fill="#FFFFFF"></path>
                                <path d="M19.1056816,4.21517486 L19.0947671,12.6623681 L22.7504532,21.0447139 L19.0795202,21.0556037 L19.0795202,24.4190715 L24.4286178,24.4918611 L26.7466545,30.71713 L31.3316548,30.71713 L19.1056816,4.21517486 Z" id="Shape" fill="#B3B3B3"></path>
                            </g>
                        </g>
                    </g>
                </g>
            </g>
        </g>
    </g>
</svg>