<?xml version="1.0" encoding="UTF-8" standalone="no"?>
<svg width="310px" height="71px" viewBox="0 0 310 71" version="1.1" xmlns="http://www.w3.org/2000/svg" xmlns:xlink="http://www.w3.org/1999/xlink" xmlns:sketch="http://www.bohemiancoding.com/sketch/ns">
    <!-- Generator: Sketch 3.4 (15575) - http://www.bohemiancoding.com/sketch -->
    <title>angular + NGULAR + JS</title>
    <desc>Created with Sketch.</desc>
    <defs></defs>
    <g id="posts" stroke="none" stroke-width="1" fill="none" fill-rule="evenodd" sketch:type="MSPage">
        <g id="My-Recipes" sketch:type="MSArtboardGroup" transform="translate(-270.000000, -429.000000)">
            <g id="RECIPE" sketch:type="MSLayerGroup" transform="translate(251.000000, 405.000000)">
                <g id="angular-+-NGULAR-+-JS" transform="translate(19.000000, 24.233010)" sketch:type="MSShapeGroup">
                    <g id="angular">
                        <g id="Layer_1">
                            <path d="M0.115215517,11.0680604 L32.66175,-7.10542736e-15 L65.9032759,11.0680604 L61.1249612,55.3417127 L32.66175,70.5389578 L4.72298276,55.3417127 L0.115215517,11.0680604 Z" id="Shape" fill="#B3B3B3"></path>
                            <path d="M3.66484914,13.5226603 L32.5728491,3.69184582 L62.098319,13.5226603 L57.8539784,52.8469058 L32.5728491,66.3450187 L7.7574181,52.8469058 L3.66484914,13.5226603 Z" id="Shape" fill="#E43137"></path>
                            <path d="M32.5728491,66.3450187 L57.8539784,52.8469058 L62.098319,13.5226603 L32.5728491,3.69184582 L32.5728491,66.3450187 Z" id="Shape" fill="#B52F32"></path>
                            <path d="M32.6179397,6.2605771 L11.7454397,51.4931302 L19.9002802,51.4931302 L24.0948362,40.9447978 L41.727931,41.1928113 L45.6628966,51.9163615 L53.4904397,51.9163615 L32.6179397,6.2605771 L32.6179397,6.2605771 Z M26.4150776,35.2692673 L32.6388491,20.7583621 L38.8627629,35.2692673 L26.4150776,35.2692673 L26.4150776,35.2692673 Z" id="Shape" fill="#FFFFFF"></path>
                            <path d="M32.6179397,6.25310001 L32.599306,20.8077391 L38.840431,35.2506451 L32.5732759,35.2694084 L32.5732759,41.0647133 L41.7054569,41.1901308 L45.6628966,51.9163615 L53.4905819,51.9163615 L32.6179397,6.25310001 Z" id="Shape" fill="#B3B3B3"></path>
                        </g>
                    </g>
                    <path d="M74,53.0097087 L74,18.7151092 L78.7275391,18.7151092 L95.824707,45.2007357 L95.824707,18.7151092 L99.9555664,18.7151092 L99.9555664,53.0097087 L95.2509766,53.0097087 L78.1308594,26.5240822 L78.1308594,53.0097087 L74,53.0097087 Z M132.241699,52.0828277 C128.126119,53.272331 124.538427,53.8670737 121.478516,53.8670737 C116.077772,53.8670737 111.93548,52.3145635 109.051514,49.2094964 C106.167547,46.1044293 104.725586,41.6554446 104.725586,35.862409 C104.725586,30.17751 106.186672,25.7555591 109.108887,22.5964237 C112.031102,19.4372883 116.131321,17.8577442 121.409668,17.8577442 C124.867368,17.8577442 128.462709,18.3752477 132.195801,19.41027 L132.195801,23.9056432 C127.514137,22.2990413 123.926445,21.4957524 121.432617,21.4957524 C117.760724,21.4957524 114.911224,22.7547533 112.884033,25.2727928 C110.856842,27.7908323 109.843262,31.3361169 109.843262,35.908753 C109.843262,40.4350449 110.929514,43.9532958 113.102051,46.4636112 C115.274588,48.9739266 118.319154,50.2290655 122.23584,50.2290655 C123.842293,50.2290655 125.578767,49.9432801 127.445312,49.3717005 L127.445312,38.2027837 L132.241699,38.2027837 L132.241699,52.0828277 Z M139.411621,18.7151092 L144.230957,18.7151092 L144.230957,40.3577822 C144.230957,43.8027074 144.862054,46.3091232 146.124268,47.8771048 C147.386481,49.4450865 149.394517,50.2290655 152.148438,50.2290655 C154.841159,50.2290655 156.74975,49.4914301 157.874268,48.016137 C158.998785,46.5408439 159.561035,44.042152 159.561035,40.5199863 L159.561035,18.7151092 L163.783691,18.7151092 L163.783691,40.4504703 C163.783691,45.1312431 162.831308,48.5374969 160.926514,50.669334 C159.021719,52.8011712 155.988628,53.8670737 151.827148,53.8670737 C147.589172,53.8670737 144.460459,52.7625515 142.440918,50.5534739 C140.421377,48.3443963 139.411621,44.9304185 139.411621,40.3114381 L139.411621,18.7151092 Z M171.251953,53.0097087 L171.251953,18.7151092 L176.071289,18.7151092 L176.071289,49.3717005 L192.355469,49.3717005 L192.355469,53.0097087 L171.251953,53.0097087 Z M202.766724,43.4174757 L206.616699,43.4174757 L208.116699,40.9040504 L217.524414,40.9040504 L211.116699,24.1017426 L202.766724,43.4174757 Z M222.619141,53.0097087 L218.924316,43.4174757 L202.766724,43.4174757 L198.794434,53.0097087 L194.319336,53.0097087 L211.116699,14.1359223 L227.828613,53.0097087 L222.619141,53.0097087 Z M232.739746,53.0097087 L232.739746,18.7151092 L243.020996,18.7151092 C246.279801,18.7151092 248.777416,19.4411588 250.513916,20.8932797 C252.250416,22.3454007 253.118652,24.454034 253.118652,27.219243 C253.118652,31.7918792 250.831403,35.0359305 246.256836,36.9514942 L257.59375,53.0097087 L251.672852,53.0097087 L241.916687,38.4698783 L237.513184,38.4698783 L237.513184,53.0097087 L232.739746,53.0097087 Z M237.513184,34.8660118 L237.513184,38.4698783 L241.916687,38.4698783 L241.916687,34.8652723 C247.116699,34.3300971 249.161621,30.5226146 249.161621,26.6498028 C249.161621,22.3531174 245.621933,22.3531174 240.54248,22.3531174 L237.513184,22.3531174 L237.513184,34.8660118 Z" id="NGULAR" fill="#FFFFFF"></path>
                    <path d="M273.537833,18.5666031 L277.870016,18.5666031 L277.870016,46.2343607 C277.870016,47.7192849 277.648537,49.0163378 277.205571,50.1255584 C276.762605,51.2347789 276.129174,52.1606063 275.305258,52.9030685 C274.481342,53.6455306 273.493543,54.2046051 272.341832,54.5803089 C271.190121,54.9560126 269.896681,55.1438616 268.461472,55.1438616 C267.238887,55.125971 266.206792,55.0231013 265.365157,54.8352494 C264.523522,54.6473975 263.890091,54.4550759 263.464844,54.2582787 L263.464844,50.3939168 C264.120433,50.6622766 264.833597,50.8724887 265.604357,51.0245592 C266.375118,51.1766298 267.203451,51.2526639 268.089383,51.2526639 C268.886721,51.2526639 269.622033,51.163212 270.295341,50.9843055 C270.968649,50.8053989 271.544495,50.5012624 272.022898,50.0718867 C272.501301,49.642511 272.873387,49.0700187 273.139166,48.3543925 C273.404946,47.6387664 273.537833,46.7531923 273.537833,45.6976437 L273.537833,18.5666031 Z M290.069231,28.0664927 C290.069231,29.1220412 290.281851,29.9941975 290.707098,30.6829877 C291.132345,31.3717779 291.703763,31.9397976 292.421367,32.3870639 C293.138971,32.8343303 293.971735,33.2010832 294.919681,33.4873336 C295.867628,33.7735841 296.855426,34.0419399 297.883107,34.292409 C299.26516,34.6323315 300.625044,35.0080295 301.962801,35.4195146 C303.300557,35.8309996 304.492117,36.3990193 305.537516,37.1235908 C306.582915,37.8481623 307.428967,38.7918801 308.075697,39.9547726 C308.722427,41.1176651 309.045787,42.6115123 309.045787,44.436359 C309.045787,46.2969869 308.704708,47.902649 308.022541,49.2533934 C307.340374,50.6041377 306.392442,51.7133416 305.178716,52.5810383 C303.96499,53.448735 302.516513,54.0927889 300.833244,54.5132193 C299.149974,54.9336496 297.307264,55.1438616 295.305059,55.1438616 C294.383691,55.1438616 293.440188,55.0857179 292.474523,54.9694286 C291.508857,54.8531394 290.587503,54.6965985 289.71043,54.4998013 C288.833358,54.3030041 288.040462,54.0793743 287.331717,53.8289052 C286.622971,53.578436 286.064843,53.3279706 285.657315,53.0775015 L285.657315,49.0789604 C286.295185,49.4009921 287.012779,49.6961835 287.810117,49.9645433 C288.607455,50.2329031 289.431359,50.4610055 290.281853,50.6488574 C291.132348,50.8367092 291.991688,50.9843049 292.859901,51.0916488 C293.728114,51.1989928 294.543158,51.2526639 295.305059,51.2526639 C296.545363,51.2526639 297.728064,51.1453216 298.853197,50.9306338 C299.97833,50.7159459 300.966129,50.3581382 301.816623,49.8571999 C302.667117,49.3562616 303.340415,48.6719544 303.836536,47.8042577 C304.332658,46.936561 304.580715,45.8497201 304.580715,44.5437023 C304.580715,43.4702631 304.363665,42.584689 303.929558,41.8869535 C303.495452,41.1892181 302.915176,40.6122531 302.188712,40.1560415 C301.462248,39.6998298 300.625056,39.3286043 299.677109,39.0423538 C298.729162,38.7561034 297.732505,38.4877476 296.687105,38.2372784 C295.305052,37.9152467 293.954027,37.5529664 292.63399,37.1504267 C291.313952,36.747887 290.135681,36.1888124 289.099141,35.4731863 C288.062601,34.7575601 287.229838,33.8362053 286.600827,32.7090941 C285.971815,31.5819829 285.657315,30.1418069 285.657315,28.3885228 C285.657315,26.5636762 285.976245,24.9937948 286.614116,23.6788318 C287.251986,22.3638688 288.120186,21.2770279 289.218741,20.4182765 C290.317296,19.5595251 291.601877,18.9244164 293.072523,18.5129314 C294.54317,18.1014463 296.111245,17.8957069 297.776796,17.8957069 C299.672689,17.8957069 301.440095,18.0790834 303.079069,18.4458418 C304.718042,18.8126002 306.219673,19.291168 307.584007,19.8815595 L307.584007,23.9337723 C306.113361,23.3075995 304.594012,22.7977235 303.025913,22.4041291 C301.457814,22.0105347 299.779,21.8047953 297.989418,21.7869046 C296.642802,21.7869046 295.47339,21.9345003 294.481147,22.2296961 C293.488904,22.5248919 292.665,22.9453159 292.009411,23.4909809 C291.353822,24.0366458 290.866567,24.6985901 290.547631,25.4768335 C290.228696,26.2550769 290.069231,27.118288 290.069231,28.0664927 L290.069231,28.0664927 Z" id="JS" fill="#D0021B"></path>
                </g>
            </g>
        </g>
    </g>
</svg>