<?xml version="1.0" encoding="UTF-8" standalone="no"?>
<svg width="171px" height="136px" viewBox="0 0 171 136" version="1.1" xmlns="http://www.w3.org/2000/svg" xmlns:xlink="http://www.w3.org/1999/xlink" xmlns:sketch="http://www.bohemiancoding.com/sketch/ns">
    <!-- Generator: Sketch 3.4.2 (15855) - http://www.bohemiancoding.com/sketch -->
    <title>Group</title>
    <desc>Created with Sketch.</desc>
    <defs></defs>
    <g id="Blackboard" stroke="none" stroke-width="1" fill="none" fill-rule="evenodd" sketch:type="MSPage">
        <g id="Artboard-1-Copy-4" sketch:type="MSArtboardGroup" transform="translate(-117.000000, -14.000000)">
            <g id="Group" sketch:type="MSLayerGroup" transform="translate(116.000000, 13.000000)">
                <text id="info---Material-Icons" sketch:type="MSTextLayer" font-family="Material Icons" font-size="30" font-weight="normal" fill="#FFFFFF">
                    <tspan x="141" y="115"></tspan>
                </text>
                <text id="share---Material-Icons" sketch:type="MSTextLayer" font-family="Material Icons" font-size="30" font-weight="normal" fill="#FFFFFF">
                    <tspan x="70" y="30"></tspan>
                </text>
                <text id="school---Material-Icons" sketch:type="MSTextLayer" font-family="Material Icons" font-size="30" font-weight="normal" fill="#FFFFFF">
                    <tspan x="0" y="58"></tspan>
                </text>
                <text id="thumb-up---Material-Icons" sketch:type="MSTextLayer" font-family="Material Icons" font-size="30" font-weight="normal" fill="#FFFFFF">
                    <tspan x="142" y="59"></tspan>
                </text>
                <text id="remove-red-eye---Material-Icons" sketch:type="MSTextLayer" font-family="Material Icons" font-size="30" font-weight="normal" fill="#FFFFFF">
                    <tspan x="1" y="115"></tspan>
                </text>
                <path d="M35.5,51.5 L49.5,59.5" id="Line" stroke="#FFFFFF" stroke-linecap="square" sketch:type="MSShapeGroup"></path>
                <path d="M35.5,83.5 L49.5,91.5" id="Line-Copy" stroke="#FFFFFF" stroke-linecap="square" sketch:type="MSShapeGroup" transform="translate(42.500000, 87.500000) scale(1, -1) translate(-42.500000, -87.500000) "></path>
                <path d="M122.5,83.5 L136.5,91.5" id="Line-Copy-2" stroke="#FFFFFF" stroke-linecap="square" sketch:type="MSShapeGroup" transform="translate(129.500000, 87.500000) scale(-1, -1) translate(-129.500000, -87.500000) "></path>
                <path d="M122.5,51.5 L136.5,59.5" id="Line-Copy-3" stroke="#FFFFFF" stroke-linecap="square" sketch:type="MSShapeGroup" transform="translate(129.500000, 55.500000) scale(-1, 1) translate(-129.500000, -55.500000) "></path>
                <path d="M85.5,34.5 L85.5,50.62" id="Line-Copy-4" stroke="#FFFFFF" stroke-linecap="square" sketch:type="MSShapeGroup" transform="translate(85.500000, 42.560000) scale(-1, 1) translate(-85.500000, -42.560000) "></path>
                <path d="M85.5,89.5 L85.5,105.62" id="Line-Copy-5" stroke="#FFFFFF" stroke-linecap="square" sketch:type="MSShapeGroup" transform="translate(85.500000, 97.560000) scale(-1, 1) translate(-85.500000, -97.560000) "></path>
                <text id="bookmark---Material-Icons" sketch:type="MSTextLayer" font-family="Material Icons" font-size="30" font-weight="normal" fill="#FFFFFF">
                    <tspan x="71" y="140"></tspan>
                </text>
                <path d="M71.3857422,72.7568359 L61.6572266,72.7568359 L61.6572266,83 L57.4570312,83 L57.4570312,58.828125 L72.8134766,58.828125 L72.8134766,62.2148438 L61.6572266,62.2148438 L61.6572266,69.4033203 L71.3857422,69.4033203 L71.3857422,72.7568359 Z M86.4765625,77.3720703 L77.1132812,77.3720703 L75.1542969,83 L70.7880859,83 L79.9189453,58.828125 L83.6875,58.828125 L92.8349609,83 L88.4521484,83 L86.4765625,77.3720703 Z M78.2919922,73.9853516 L85.2978516,73.9853516 L81.7949219,63.9580078 L78.2919922,73.9853516 Z M114.433594,71.5449219 C114.433594,73.835949 114.07113,75.8198158 113.346191,77.496582 C112.621253,79.1733482 111.605801,80.5042268 110.299805,81.4892578 L114.450195,84.7265625 L111.727539,87.1835938 L106.581055,83.1162109 C105.905921,83.2600919 105.180993,83.3320312 104.40625,83.3320312 C102.458324,83.3320312 100.717944,82.8533577 99.1850586,81.8959961 C97.6521733,80.9386345 96.4679404,79.5745531 95.6323242,77.8037109 C94.7967081,76.0328688 94.3733725,73.990897 94.3623047,71.6777344 L94.3623047,70.3164062 C94.3623047,67.9589726 94.7801065,65.8782642 95.6157227,64.0742188 C96.4513388,62.2701733 97.630038,60.8894905 99.1518555,59.9321289 C100.673673,58.9747673 102.414053,58.4960938 104.373047,58.4960938 C106.365244,58.4960938 108.122225,58.9692335 109.644043,59.9155273 C111.16586,60.8618211 112.341793,62.2231356 113.171875,63.9995117 C114.001957,65.7758878 114.422526,67.8427617 114.433594,70.2001953 L114.433594,71.5449219 Z M110.216797,70.2832031 C110.216797,67.5605333 109.707687,65.4964263 108.689453,64.0908203 C107.671219,62.6852143 106.232431,61.9824219 104.373047,61.9824219 C102.569001,61.9824219 101.155116,62.693515 100.131348,64.1157227 C99.1075795,65.5379303 98.5846355,67.5439324 98.5625,70.1337891 L98.5625,71.5449219 C98.5625,74.1569141 99.0743764,76.1988859 100.098145,77.6708984 C101.121913,79.142911 102.557933,79.8789062 104.40625,79.8789062 C106.276702,79.8789062 107.712723,79.17058 108.714355,77.7539062 C109.715988,76.3372325 110.216797,74.2675917 110.216797,71.5449219 L110.216797,70.2832031 Z" id="FAQ" fill="#FFFFFF" sketch:type="MSShapeGroup"></path>
            </g>
        </g>
    </g>
</svg>