<?xml version="1.0" encoding="UTF-8" standalone="no"?>
<svg width="123px" height="41px" viewBox="0 0 123 41" version="1.1" xmlns="http://www.w3.org/2000/svg" xmlns:xlink="http://www.w3.org/1999/xlink" xmlns:sketch="http://www.bohemiancoding.com/sketch/ns">
    <!-- Generator: Sketch 3.4 (15575) - http://www.bohemiancoding.com/sketch -->
    <title>Blog + Shape + SERIES</title>
    <desc>Created with Sketch.</desc>
    <defs></defs>
    <g id="posts" stroke="none" stroke-width="1" fill="none" fill-rule="evenodd" sketch:type="MSPage">
        <g id="Artboard-14" sketch:type="MSArtboardGroup" transform="translate(-1241.000000, -921.000000)" fill="#FFFFFF">
            <g id="RECIPE-Copy-26" sketch:type="MSLayerGroup" transform="translate(1130.000000, 844.000000)">
                <g id="Blog-+-Shape-+-SERIES" transform="translate(111.000000, 77.000000)" sketch:type="MSShapeGroup">
                    <g id="Blog-+-Shape" transform="translate(9.000000, 0.000000)">
                        <path d="M34.2558594,32 L34.2558594,2.140625 L44.9814453,2.140625 C48.8232614,2.140625 51.7455955,2.84471952 53.7485352,4.25292969 C55.7514749,5.66113985 56.7529297,7.70506473 56.7529297,10.3847656 C56.7529297,11.9296952 56.3974645,13.249018 55.6865234,14.3427734 C54.9755824,15.4365289 53.9296944,16.2431615 52.5488281,16.7626953 C54.1074297,17.1728536 55.3037068,17.938471 56.1376953,19.0595703 C56.9716839,20.1806697 57.3886719,21.5478435 57.3886719,23.1611328 C57.3886719,26.0869287 56.4624116,28.2846606 54.6098633,29.7543945 C52.757315,31.2241284 50.0127135,31.9726561 46.3759766,32 L34.2558594,32 Z M41.4541016,19.3056641 L41.4541016,26.4628906 L46.1708984,26.4628906 C47.4697331,26.4628906 48.46777,26.1655303 49.1650391,25.5708008 C49.8623082,24.9760712 50.2109375,24.1386773 50.2109375,23.0585938 C50.2109375,20.5703001 48.9736452,19.319336 46.4990234,19.3056641 L41.4541016,19.3056641 Z M41.4541016,14.5888672 L45.2070312,14.5888672 C46.7793047,14.5751952 47.9003873,14.2880887 48.5703125,13.7275391 C49.2402377,13.1669894 49.5751953,12.3398492 49.5751953,11.2460938 C49.5751953,9.98827496 49.2128942,9.0825223 48.4882812,8.52880859 C47.7636683,7.97509489 46.5947346,7.69824219 44.9814453,7.69824219 L41.4541016,7.69824219 L41.4541016,14.5888672 Z M67.3193359,32 L60.3876953,32 L60.3876953,0.5 L67.3193359,0.5 L67.3193359,32 Z M69.703125,20.7001953 C69.703125,18.4853405 70.1337848,16.5131922 70.9951172,14.7836914 C71.8564496,13.0541906 73.0937419,11.724614 74.7070312,10.7949219 C76.3203206,9.86522973 78.2138563,9.40039062 80.3876953,9.40039062 C83.7099775,9.40039062 86.3281154,10.4291889 88.2421875,12.4868164 C90.1562596,14.5444439 91.1132812,17.3437323 91.1132812,20.8847656 L91.1132812,21.1308594 C91.1132812,24.589861 90.1528416,27.3344625 88.2319336,29.3647461 C86.3110256,31.3950297 83.7099773,32.4101562 80.4287109,32.4101562 C77.270492,32.4101562 74.7343846,31.4633884 72.8203125,29.5698242 C70.9062404,27.6762601 69.8740242,25.1093912 69.7236328,21.8691406 L69.703125,20.7001953 Z M76.6142578,21.1308594 C76.6142578,23.1816509 76.9355437,24.6855421 77.578125,25.6425781 C78.2207063,26.5996142 79.1708921,27.078125 80.4287109,27.078125 C82.8896607,27.078125 84.1474607,25.1845892 84.2021484,21.3974609 L84.2021484,20.7001953 C84.2021484,16.7216598 82.9306768,14.7324219 80.3876953,14.7324219 C78.0771369,14.7324219 76.8261728,16.448225 76.6347656,19.8798828 L76.6142578,21.1308594 Z M92.3486328,20.7412109 C92.3486328,18.4990122 92.7177697,16.5166102 93.4560547,14.7939453 C94.1943396,13.0712804 95.2538993,11.7417039 96.6347656,10.8051758 C98.0156319,9.86864766 99.6220612,9.40039063 101.454102,9.40039063 C103.76466,9.40039063 105.569329,10.1796797 106.868164,11.7382813 L107.114258,9.81054688 L113.389648,9.81054688 L113.389648,31.1591797 C113.389648,33.1142676 112.935063,34.8129811 112.025879,36.2553711 C111.116695,37.6977611 109.80079,38.8051719 108.078125,39.5776367 C106.35546,40.3501015 104.359386,40.7363281 102.089844,40.7363281 C100.462882,40.7363281 98.8872147,40.428714 97.362793,39.8134766 C95.8383713,39.1982391 94.6728556,38.3984424 93.8662109,37.4140625 L96.7578125,33.3535156 C98.0429752,34.8711013 99.7382707,35.6298828 101.84375,35.6298828 C104.906265,35.6298828 106.4375,34.0576329 106.4375,30.9130859 L106.4375,30.2158203 C105.111321,31.6787183 103.436534,32.4101562 101.413086,32.4101562 C98.7060412,32.4101562 96.518563,31.3745221 94.8505859,29.3032227 C93.1826088,27.2319232 92.3486328,24.4599783 92.3486328,20.9873047 L92.3486328,20.7412109 Z M99.2802734,21.171875 C99.2802734,22.9902435 99.6220669,24.4291939 100.305664,25.4887695 C100.989261,26.5483451 101.946283,27.078125 103.176758,27.078125 C104.667,27.078125 105.753903,26.5791066 106.4375,25.5810547 L106.4375,16.25 C105.767575,15.2382762 104.694343,14.7324219 103.217773,14.7324219 C101.987299,14.7324219 101.023441,15.2827093 100.326172,16.3833008 C99.6289028,17.4838922 99.2802734,19.0800677 99.2802734,21.171875 L99.2802734,21.171875 Z" id="Blog"></path>
                        <path d="M18,18.5 L11.925,18.5 C11.0965729,18.5 10.425,19.1715729 10.425,20 C10.425,20.8284271 11.0965729,21.5 11.925,21.5 L18,21.5 C18.8284271,21.5 19.5,20.8284271 19.5,20 C19.5,19.1715729 18.8284271,18.5 18,18.5 L18,18.5 Z M11.925,14 L15.825,14 C16.6534271,14 17.325,13.3284271 17.325,12.5 C17.325,11.6715729 16.6534271,11 15.825,11 L11.925,11 C11.0965729,11 10.425,11.6715729 10.425,12.5 C10.425,13.3284271 11.0965729,14 11.925,14 L11.925,14 Z M21,12.5 L21,14 C21,14.8284271 21.6715729,15.5 22.5,15.5 C23.3284271,15.5 24,16.1715729 24,17 L24,21.5 C24,23.9852814 21.9852814,26 19.5,26 L10.5,26 C8.01471863,26 6,23.9852814 6,21.5 L6,11 C6,8.51471863 8.01471863,6.5 10.5,6.5 L16.5,6.5 C18.9852814,6.5 21,8.51471863 21,11 L21,12.5 Z M27,2 L3,2 C1.335,2 0,3.335 0,5 L0,29 C0,30.6568542 1.34314575,32 3,32 L27,32 C28.6568542,32 30,30.6568542 30,29 L30,5 C30,3.335 28.65,2 27,2 L27,2 Z" id="Shape"></path>
                    </g>
                    <path d="M-7.9702207,19.3538438 C-7.9702207,19.1256564 -8.05097413,18.9478507 -8.21248341,18.8204213 C-8.37399268,18.692992 -8.65774096,18.5611194 -9.06373676,18.4247997 C-9.46973256,18.2884799 -9.80163655,18.1566074 -10.0594587,18.029178 C-10.8981216,17.6172553 -11.3174467,17.0512404 -11.3174467,16.3311165 C-11.3174467,15.9725363 -11.2129858,15.6561903 -11.004061,15.382069 C-10.7951361,15.1079478 -10.4995341,14.8945809 -10.1172461,14.7419621 C-9.73495812,14.5893432 -9.30526099,14.5130349 -8.82814184,14.5130349 C-8.36287658,14.5130349 -7.94577402,14.5960109 -7.57682163,14.7619654 C-7.20786925,14.9279199 -6.92115754,15.1642533 -6.7166779,15.4709728 C-6.51219827,15.7776922 -6.40995998,16.1281176 -6.40995998,16.5222596 L-7.96577552,16.5222596 C-7.96577552,16.2585105 -8.04652894,16.0540339 -8.20803822,15.9088237 C-8.3695475,15.7636135 -8.58810035,15.6910095 -8.86370334,15.6910095 C-9.14226979,15.6910095 -9.36230436,15.7525007 -9.52381364,15.8754848 C-9.68532292,15.9984689 -9.76607634,16.1547898 -9.76607634,16.3444521 C-9.76607634,16.5104065 -9.67717349,16.6608005 -9.49936511,16.7956386 C-9.32155673,16.9304766 -9.00891502,17.0697577 -8.5614306,17.2134862 C-8.11394619,17.3572146 -7.74648105,17.5120537 -7.45902417,17.6780082 C-6.75964455,18.0810406 -6.40995998,18.6366834 -6.40995998,19.3449534 C-6.40995998,19.9109768 -6.62332684,20.3554911 -7.05006695,20.6785096 C-7.47680705,21.0015282 -8.06208419,21.163035 -8.8059159,21.163035 C-9.33045062,21.163035 -9.80534004,21.0689462 -10.2305984,20.8807656 C-10.6558568,20.6925851 -10.9759071,20.4347668 -11.1907589,20.1073031 C-11.4056106,19.7798393 -11.5130349,19.402743 -11.5130349,18.9760029 L-9.94832902,18.9760029 C-9.94832902,19.3227292 -9.85868531,19.578325 -9.67939519,19.7427977 C-9.50010508,19.9072704 -9.20894823,19.9895056 -8.8059159,19.9895056 C-8.54809375,19.9895056 -8.34435804,19.9339413 -8.19470266,19.8228111 C-8.04504727,19.7116808 -7.9702207,19.55536 -7.9702207,19.3538438 L-7.9702207,19.3538438 Z M-1.59582222,18.3314508 L-4.04956557,18.3314508 L-4.04956557,19.8739307 L-1.15130349,19.8739307 L-1.15130349,21.0741313 L-5.60982628,21.0741313 L-5.60982628,14.6019387 L-1.14241312,14.6019387 L-1.14241312,15.8065844 L-4.04956557,15.8065844 L-4.04956557,17.1712569 L-1.59582222,17.1712569 L-1.59582222,18.3314508 Z M1.88920457,18.789305 L1.044619,18.789305 L1.044619,21.0741313 L-0.515641719,21.0741313 L-0.515641719,14.6019387 L2.03145056,14.6019387 C2.79899006,14.6019387 3.39908434,14.7723358 3.83175139,15.1131352 C4.26441845,15.4539346 4.48074873,15.9354917 4.48074873,16.5578211 C4.48074873,17.0082689 4.3896233,17.3816609 4.20736971,17.6780082 C4.02511613,17.9743555 3.73988613,18.2143932 3.35167117,18.3981286 L4.70300809,21.0074535 L4.70300809,21.0741313 L3.03161769,21.0741313 L1.88920457,18.789305 Z M1.044619,17.5846593 L2.03145056,17.5846593 C2.32779786,17.5846593 2.55079586,17.5068693 2.70045124,17.351287 C2.85010663,17.1957046 2.9249332,16.9786335 2.9249332,16.700067 C2.9249332,16.4215006 2.84936577,16.2029477 2.69822865,16.0444019 C2.54709153,15.8858561 2.32483439,15.8065844 2.03145056,15.8065844 L1.044619,15.8065844 L1.044619,17.5846593 Z M7.08562844,21.0741313 L5.52981291,21.0741313 L5.52981291,14.6019387 L7.08562844,14.6019387 L7.08562844,21.0741313 Z M12.1842582,18.3314508 L9.73051485,18.3314508 L9.73051485,19.8739307 L12.6287769,19.8739307 L12.6287769,21.0741313 L8.17025413,21.0741313 L8.17025413,14.6019387 L12.6376673,14.6019387 L12.6376673,15.8065844 L9.73051485,15.8065844 L9.73051485,17.1712569 L12.1842582,17.1712569 L12.1842582,18.3314508 Z M16.6027743,19.3538438 C16.6027743,19.1256564 16.5220209,18.9478507 16.3605116,18.8204213 C16.1990023,18.692992 15.915254,18.5611194 15.5092582,18.4247997 C15.1032624,18.2884799 14.7713585,18.1566074 14.5135363,18.029178 C13.6748735,17.6172553 13.2555483,17.0512404 13.2555483,16.3311165 C13.2555483,15.9725363 13.3600092,15.6561903 13.568934,15.382069 C13.7778589,15.1079478 14.0734609,14.8945809 14.4557489,14.7419621 C14.8380369,14.5893432 15.267734,14.5130349 15.7448532,14.5130349 C16.2101184,14.5130349 16.627221,14.5960109 16.9961734,14.7619654 C17.3651258,14.9279199 17.6518375,15.1642533 17.8563171,15.4709728 C18.0607967,15.7776922 18.163035,16.1281176 18.163035,16.5222596 L16.6072195,16.5222596 C16.6072195,16.2585105 16.5264661,16.0540339 16.3649568,15.9088237 C16.2034475,15.7636135 15.9848947,15.6910095 15.7092917,15.6910095 C15.4307252,15.6910095 15.2106906,15.7525007 15.0491814,15.8754848 C14.8876721,15.9984689 14.8069187,16.1547898 14.8069187,16.3444521 C14.8069187,16.5104065 14.8958215,16.6608005 15.0736299,16.7956386 C15.2514383,16.9304766 15.56408,17.0697577 16.0115644,17.2134862 C16.4590488,17.3572146 16.826514,17.5120537 17.1139708,17.6780082 C17.8133505,18.0810406 18.163035,18.6366834 18.163035,19.3449534 C18.163035,19.9109768 17.9496682,20.3554911 17.5229281,20.6785096 C17.096188,21.0015282 16.5109108,21.163035 15.7670791,21.163035 C15.2425444,21.163035 14.767655,21.0689462 14.3423966,20.8807656 C13.9171382,20.6925851 13.5970879,20.4347668 13.3822362,20.1073031 C13.1673844,19.7798393 13.0599601,19.402743 13.0599601,18.9760029 L14.624666,18.9760029 C14.624666,19.3227292 14.7143097,19.578325 14.8935998,19.7427977 C15.0728899,19.9072704 15.3640468,19.9895056 15.7670791,19.9895056 C16.0249013,19.9895056 16.228637,19.9339413 16.3782923,19.8228111 C16.5279477,19.7116808 16.6027743,19.55536 16.6027743,19.3538438 L16.6027743,19.3538438 Z" id="SERIES" transform="translate(3.325000, 17.838035) rotate(-90.000000) translate(-3.325000, -17.838035) "></path>
                </g>
            </g>
        </g>
    </g>
</svg>