<?xml version="1.0" encoding="UTF-8" standalone="no"?>
<svg width="203px" height="34px" viewBox="0 0 203 34" version="1.1" xmlns="http://www.w3.org/2000/svg" xmlns:xlink="http://www.w3.org/1999/xlink" xmlns:sketch="http://www.bohemiancoding.com/sketch/ns">
    <!-- Generator: Sketch 3.4 (15575) - http://www.bohemiancoding.com/sketch -->
    <title>SERIES + Portfolio + briefcase - FontAwesome Copy 6 + Portfolio Copy Copy Copy</title>
    <desc>Created with Sketch.</desc>
    <defs></defs>
    <g id="posts" stroke="none" stroke-width="1" fill="none" fill-rule="evenodd" sketch:type="MSPage">
        <g id="Artboard-14" sketch:type="MSArtboardGroup" transform="translate(-327.000000, -1052.000000)" fill="#FFFFFF">
            <g id="SERIES-+-Portfolio-+-briefcase---FontAwesome-Copy-6-+-Portfolio-Copy-Copy-Copy" sketch:type="MSLayerGroup" transform="translate(327.000000, 1052.000000)">
                <path d="M-7.92660423,20.3479529 C-7.92660423,20.1197655 -8.00735765,19.9419598 -8.16886693,19.8145305 C-8.33037621,19.6871011 -8.61412449,19.5552286 -9.02012028,19.4189088 C-9.42611608,19.2825891 -9.75802007,19.1507165 -10.0158422,19.0232872 C-10.8545051,18.6113644 -11.2738302,18.0453496 -11.2738302,17.3252256 C-11.2738302,16.9666454 -11.1693694,16.6502994 -10.9604445,16.3761782 C-10.7515197,16.1020569 -10.4559177,15.8886901 -10.0736297,15.7360712 C-9.69134164,15.5834523 -9.26164451,15.5071441 -8.78452536,15.5071441 C-8.3192601,15.5071441 -7.90215754,15.5901201 -7.53320516,15.7560745 C-7.16425277,15.922029 -6.87754106,16.1583624 -6.67306143,16.4650819 C-6.46858179,16.7718014 -6.36634351,17.1222268 -6.36634351,17.5163687 L-7.92215904,17.5163687 C-7.92215904,17.2526196 -8.00291246,17.048143 -8.16442174,16.9029328 C-8.32593102,16.7577227 -8.54448387,16.6851187 -8.82008686,16.6851187 C-9.09865332,16.6851187 -9.31868788,16.7466098 -9.48019716,16.8695939 C-9.64170644,16.9925781 -9.72245987,17.1488989 -9.72245987,17.3385612 C-9.72245987,17.5045157 -9.63355701,17.6549097 -9.45574863,17.7897477 C-9.27794025,17.9245857 -8.96529855,18.0638669 -8.51781413,18.2075953 C-8.07032971,18.3513237 -7.70286457,18.5061629 -7.41540769,18.6721174 C-6.71602807,19.0751497 -6.36634351,19.6307925 -6.36634351,20.3390626 C-6.36634351,20.9050859 -6.57971036,21.3496002 -7.00645047,21.6726187 C-7.43319058,21.9956373 -8.01846771,22.1571441 -8.76229942,22.1571441 C-9.28683414,22.1571441 -9.76172356,22.0630553 -10.1869819,21.8748748 C-10.6122403,21.6866942 -10.9322906,21.4288759 -11.1471424,21.1014122 C-11.3619942,20.7739484 -11.4694184,20.3968521 -11.4694184,19.970112 L-9.90471254,19.970112 C-9.90471254,20.3168384 -9.81506883,20.5724341 -9.63577871,20.7369068 C-9.4564886,20.9013796 -9.16533175,20.9836147 -8.76229942,20.9836147 C-8.50447728,20.9836147 -8.30074157,20.9280504 -8.15108618,20.8169202 C-8.0014308,20.70579 -7.92660423,20.5494691 -7.92660423,20.3479529 L-7.92660423,20.3479529 Z M-1.55220574,19.3255599 L-4.00594909,19.3255599 L-4.00594909,20.8680399 L-1.10768701,20.8680399 L-1.10768701,22.0682404 L-5.56620981,22.0682404 L-5.56620981,15.5960478 L-1.09879664,15.5960478 L-1.09879664,16.8006935 L-4.00594909,16.8006935 L-4.00594909,18.165366 L-1.55220574,18.165366 L-1.55220574,19.3255599 Z M1.93282105,19.7834142 L1.08823548,19.7834142 L1.08823548,22.0682404 L-0.472025241,22.0682404 L-0.472025241,15.5960478 L2.07506704,15.5960478 C2.84260654,15.5960478 3.44270082,15.7664449 3.87536787,16.1072443 C4.30803492,16.4480437 4.5243652,16.9296009 4.5243652,17.5519302 C4.5243652,18.0023781 4.43323978,18.3757701 4.25098619,18.6721174 C4.0687326,18.9684647 3.78350261,19.2085024 3.39528765,19.3922377 L4.74662457,22.0015626 L4.74662457,22.0682404 L3.07523417,22.0682404 L1.93282105,19.7834142 Z M1.08823548,18.5787684 L2.07506704,18.5787684 C2.37141434,18.5787684 2.59441233,18.5009784 2.74406772,18.3453961 C2.8937231,18.1898138 2.96854967,17.9727426 2.96854967,17.6941762 C2.96854967,17.4156097 2.89298225,17.1970569 2.74184513,17.0385111 C2.590708,16.8799652 2.36845087,16.8006935 2.07506704,16.8006935 L1.08823548,16.8006935 L1.08823548,18.5787684 Z M7.12924492,22.0682404 L5.57342939,22.0682404 L5.57342939,15.5960478 L7.12924492,15.5960478 L7.12924492,22.0682404 Z M12.2278747,19.3255599 L9.77413132,19.3255599 L9.77413132,20.8680399 L12.6723934,20.8680399 L12.6723934,22.0682404 L8.21387061,22.0682404 L8.21387061,15.5960478 L12.6812838,15.5960478 L12.6812838,16.8006935 L9.77413132,16.8006935 L9.77413132,18.165366 L12.2278747,18.165366 L12.2278747,19.3255599 Z M16.6463908,20.3479529 C16.6463908,20.1197655 16.5656374,19.9419598 16.4041281,19.8145305 C16.2426188,19.6871011 15.9588705,19.5552286 15.5528747,19.4189088 C15.1468789,19.2825891 14.8149749,19.1507165 14.5571528,19.0232872 C13.7184899,18.6113644 13.2991648,18.0453496 13.2991648,17.3252256 C13.2991648,16.9666454 13.4036257,16.6502994 13.6125505,16.3761782 C13.8214753,16.1020569 14.1170773,15.8886901 14.4993653,15.7360712 C14.8816534,15.5834523 15.3113505,15.5071441 15.7884696,15.5071441 C16.2537349,15.5071441 16.6708375,15.5901201 17.0397898,15.7560745 C17.4087422,15.922029 17.6954539,16.1583624 17.8999336,16.4650819 C18.1044132,16.7718014 18.2066515,17.1222268 18.2066515,17.5163687 L16.650836,17.5163687 C16.650836,17.2526196 16.5700825,17.048143 16.4085733,16.9029328 C16.247064,16.7577227 16.0285111,16.6851187 15.7529081,16.6851187 C15.4743417,16.6851187 15.2543071,16.7466098 15.0927978,16.8695939 C14.9312886,16.9925781 14.8505351,17.1488989 14.8505351,17.3385612 C14.8505351,17.5045157 14.939438,17.6549097 15.1172464,17.7897477 C15.2950548,17.9245857 15.6076965,18.0638669 16.0551809,18.2075953 C16.5026653,18.3513237 16.8701304,18.5061629 17.1575873,18.6721174 C17.8569669,19.0751497 18.2066515,19.6307925 18.2066515,20.3390626 C18.2066515,20.9050859 17.9932846,21.3496002 17.5665445,21.6726187 C17.1398044,21.9956373 16.5545273,22.1571441 15.8106956,22.1571441 C15.2861609,22.1571441 14.8112714,22.0630553 14.3860131,21.8748748 C13.9607547,21.6866942 13.6407044,21.4288759 13.4258526,21.1014122 C13.2110008,20.7739484 13.1035766,20.3968521 13.1035766,19.970112 L14.6682825,19.970112 C14.6682825,20.3168384 14.7579262,20.5724341 14.9372163,20.7369068 C15.1165064,20.9013796 15.4076633,20.9836147 15.8106956,20.9836147 C16.0685177,20.9836147 16.2722534,20.9280504 16.4219088,20.8169202 C16.5715642,20.70579 16.6463908,20.5494691 16.6463908,20.3479529 L16.6463908,20.3479529 Z" id="SERIES" sketch:type="MSShapeGroup" transform="translate(3.368617, 18.832144) rotate(-90.000000) translate(-3.368617, -18.832144) "></path>
                <g id="Portfolio-+-briefcase---FontAwesome-Copy-6" transform="translate(8.000000, 2.000000)" sketch:type="MSShapeGroup">
                    <path d="M12.6666953,5 L12.6666953,2.5 L22.6666953,2.5 L22.6666953,5 L12.6666953,5 Z M35.1666953,17.5 L22.0416953,17.5 L22.0416953,20.625 C22.0416953,21.3085938 21.475289,21.875 20.7916953,21.875 L14.5416953,21.875 C13.8581015,21.875 13.2916953,21.3085938 13.2916953,20.625 L13.2916953,17.5 L0.166695277,17.5 L0.166695277,26.875 C0.166695277,28.59375 1.57294528,30 3.29169528,30 L32.0416953,30 C33.7604453,30 35.1666953,28.59375 35.1666953,26.875 L35.1666953,17.5 Z M20.1666953,17.5 L15.1666953,17.5 L15.1666953,20 L20.1666953,20 L20.1666953,17.5 Z M35.1666953,8.125 C35.1666953,6.40625 33.7604453,5 32.0416953,5 L25.1666953,5 L25.1666953,1.875 C25.1666953,0.83984375 24.3268515,0 23.2916953,0 L12.0416953,0 C11.006539,0 10.1666953,0.83984375 10.1666953,1.875 L10.1666953,5 L3.29169528,5 C1.57294528,5 0.166695277,6.40625 0.166695277,8.125 L0.166695277,15.625 L35.1666953,15.625 L35.1666953,8.125 Z" id="briefcase---FontAwesome"></path>
                </g>
                <path d="M53.4541016,21.8691406 L53.4541016,32 L46.2558594,32 L46.2558594,2.140625 L58.1708984,2.140625 C60.454113,2.140625 62.4741123,2.56103095 64.230957,3.40185547 C65.9878018,4.24267999 67.3481397,5.43895708 68.3120117,6.99072266 C69.2758837,8.54248823 69.7578125,10.3027245 69.7578125,12.2714844 C69.7578125,15.1836083 68.7153425,17.5112218 66.6303711,19.2543945 C64.5453997,20.9975673 61.6845885,21.8691406 58.0478516,21.8691406 L53.4541016,21.8691406 Z M53.4541016,16.3115234 L58.1708984,16.3115234 C59.5654367,16.3115234 60.6284143,15.9628941 61.3598633,15.265625 C62.0913123,14.5683559 62.4570312,13.5839907 62.4570312,12.3125 C62.4570312,10.9179618 62.0810584,9.80371511 61.3291016,8.96972656 C60.5771447,8.13573802 59.5517643,7.71191413 58.2529297,7.69824219 L53.4541016,7.69824219 L53.4541016,16.3115234 Z M71.1367188,20.7001953 C71.1367188,18.4853405 71.5673785,16.5131922 72.4287109,14.7836914 C73.2900434,13.0541906 74.5273357,11.724614 76.140625,10.7949219 C77.7539143,9.86522973 79.6474501,9.40039062 81.8212891,9.40039062 C85.1435713,9.40039062 87.7617092,10.4291889 89.6757812,12.4868164 C91.5898533,14.5444439 92.546875,17.3437323 92.546875,20.8847656 L92.546875,21.1308594 C92.546875,24.589861 91.5864354,27.3344625 89.6655273,29.3647461 C87.7446193,31.3950297 85.1435711,32.4101562 81.8623047,32.4101562 C78.7040858,32.4101562 76.1679783,31.4633884 74.2539062,29.5698242 C72.3398342,27.6762601 71.3076179,25.1093912 71.1572266,21.8691406 L71.1367188,20.7001953 Z M78.0478516,21.1308594 C78.0478516,23.1816509 78.3691374,24.6855421 79.0117188,25.6425781 C79.6543001,26.5996142 80.6044859,27.078125 81.8623047,27.078125 C84.3232545,27.078125 85.5810544,25.1845892 85.6357422,21.3974609 L85.6357422,20.7001953 C85.6357422,16.7216598 84.3642705,14.7324219 81.8212891,14.7324219 C79.5107306,14.7324219 78.2597666,16.448225 78.0683594,19.8798828 L78.0478516,21.1308594 Z M108.014648,16.0654297 L105.738281,15.9013672 C103.564442,15.9013672 102.169925,16.5849541 101.554688,17.9521484 L101.554688,32 L94.6435547,32 L94.6435547,9.81054688 L101.124023,9.81054688 L101.349609,12.6611328 C102.511725,10.4872938 104.131826,9.40039062 106.209961,9.40039062 C106.948246,9.40039062 107.590818,9.48242105 108.137695,9.64648438 L108.014648,16.0654297 Z M118.581055,4.29394531 L118.581055,9.81054688 L122.231445,9.81054688 L122.231445,14.609375 L118.581055,14.609375 L118.581055,24.7607422 C118.581055,25.5947307 118.731444,26.1757796 119.032227,26.5039062 C119.333009,26.8320329 119.92773,26.9960938 120.816406,26.9960938 C121.500003,26.9960938 122.074216,26.9550785 122.539062,26.8730469 L122.539062,31.8154297 C121.294916,32.211916 119.996101,32.4101562 118.642578,32.4101562 C116.26366,32.4101562 114.506842,31.849615 113.37207,30.7285156 C112.237299,29.6074163 111.669922,27.9052849 111.669922,25.6220703 L111.669922,14.609375 L108.839844,14.609375 L108.839844,9.81054688 L111.669922,9.81054688 L111.669922,4.29394531 L118.581055,4.29394531 Z M125.476562,32 L125.476562,14.609375 L122.256836,14.609375 L122.256836,9.81054688 L125.476562,9.81054688 L125.476562,8.046875 C125.476562,5.51756548 126.221672,3.55567104 127.711914,2.16113281 C129.202156,0.76659459 131.293932,0.0693359375 133.987305,0.0693359375 C134.971685,0.0693359375 136.051752,0.212889189 137.227539,0.5 L137.248047,5.5859375 C136.824217,5.46289001 136.256839,5.40136719 135.545898,5.40136719 C133.454091,5.40136719 132.408203,6.30370191 132.408203,8.10839844 L132.408203,9.81054688 L136.735352,9.81054688 L136.735352,14.609375 L132.408203,14.609375 L132.408203,32 L125.476562,32 Z M137.293945,20.7001953 C137.293945,18.4853405 137.724605,16.5131922 138.585938,14.7836914 C139.44727,13.0541906 140.684562,11.724614 142.297852,10.7949219 C143.911141,9.86522973 145.804677,9.40039062 147.978516,9.40039062 C151.300798,9.40039062 153.918936,10.4291889 155.833008,12.4868164 C157.74708,14.5444439 158.704102,17.3437323 158.704102,20.8847656 L158.704102,21.1308594 C158.704102,24.589861 157.743662,27.3344625 155.822754,29.3647461 C153.901846,31.3950297 151.300798,32.4101562 148.019531,32.4101562 C144.861312,32.4101562 142.325205,31.4633884 140.411133,29.5698242 C138.497061,27.6762601 137.464845,25.1093912 137.314453,21.8691406 L137.293945,20.7001953 Z M144.205078,21.1308594 C144.205078,23.1816509 144.526364,24.6855421 145.168945,25.6425781 C145.811527,26.5996142 146.761712,27.078125 148.019531,27.078125 C150.480481,27.078125 151.738281,25.1845892 151.792969,21.3974609 L151.792969,20.7001953 C151.792969,16.7216598 150.521497,14.7324219 147.978516,14.7324219 C145.667957,14.7324219 144.416993,16.448225 144.225586,19.8798828 L144.205078,21.1308594 Z M168.040039,32 L161.108398,32 L161.108398,0.5 L168.040039,0.5 L168.040039,32 Z M178.585938,32 L171.654297,32 L171.654297,9.81054688 L178.585938,9.81054688 L178.585938,32 Z M171.244141,4.08886719 C171.244141,3.10448727 171.599606,2.29785471 172.310547,1.66894531 C173.021488,1.04003592 173.94433,0.725585938 175.079102,0.725585938 C176.213873,0.725585938 177.136715,1.04003592 177.847656,1.66894531 C178.558597,2.29785471 178.914062,3.10448727 178.914062,4.08886719 C178.914062,5.07324711 178.558597,5.87987967 177.847656,6.50878906 C177.136715,7.13769846 176.213873,7.45214844 175.079102,7.45214844 C173.94433,7.45214844 173.021488,7.13769846 172.310547,6.50878906 C171.599606,5.87987967 171.244141,5.07324711 171.244141,4.08886719 L171.244141,4.08886719 Z M180.969727,20.7001953 C180.969727,18.4853405 181.400386,16.5131922 182.261719,14.7836914 C183.123051,13.0541906 184.360343,11.724614 185.973633,10.7949219 C187.586922,9.86522973 189.480458,9.40039062 191.654297,9.40039062 C194.976579,9.40039062 197.594717,10.4291889 199.508789,12.4868164 C201.422861,14.5444439 202.379883,17.3437323 202.379883,20.8847656 L202.379883,21.1308594 C202.379883,24.589861 201.419443,27.3344625 199.498535,29.3647461 C197.577627,31.3950297 194.976579,32.4101562 191.695312,32.4101562 C188.537094,32.4101562 186.000986,31.4633884 184.086914,29.5698242 C182.172842,27.6762601 181.140626,25.1093912 180.990234,21.8691406 L180.969727,20.7001953 Z M187.880859,21.1308594 C187.880859,23.1816509 188.202145,24.6855421 188.844727,25.6425781 C189.487308,26.5996142 190.437494,27.078125 191.695312,27.078125 C194.156262,27.078125 195.414062,25.1845892 195.46875,21.3974609 L195.46875,20.7001953 C195.46875,16.7216598 194.197278,14.7324219 191.654297,14.7324219 C189.343738,14.7324219 188.092774,16.448225 187.901367,19.8798828 L187.880859,21.1308594 Z" id="Portfolio" sketch:type="MSShapeGroup"></path>
            </g>
        </g>
    </g>
</svg>